<svg width="130" height="66.043" viewBox="0 0 130 66" xmlns="http://www.w3.org/2000/svg">
  <g fill="#000000">
    <path d="M17.3 44.6l-7.5-10 5.3-5c1.4-1.4 2.7-2.4 4.8-3.2v-.1h-6.1v.1c.7.3 1.1.9 1.1 1.5 0 .5-.3 1.1-.9 1.6l-8.6 8.3v-7.5c0-2 .3-3.1 1.7-3.8v-.1H0v.1c1.4.7 1.7 1.8 1.7 3.8v13.9c0 2-.3 3.1-1.7 3.8v.1h7.2V48c-1.4-.7-1.7-1.8-1.7-3.8v-5.3l1.8-1.7 5.9 7.9c.6.8.9 1.2.9 1.8s-.2.9-.8 1.2v.1H21v-.1c-1.3-.6-2.6-1.9-3.7-3.5zM31.2 46.7c-3.3 0-5.3-2.7-5.3-6.8h10.4c0-4.2-2.1-7.3-6.6-7.3-4 0-7.4 3.2-7.4 7.9 0 5 3.4 7.9 7.5 7.9 3.4 0 5.9-1.9 6.6-5.2l-.2-.1c-1 2.4-2.8 3.6-5 3.6zm-1.5-13.5c2.5 0 3 2.8 3 6H26c.1-3.6 1.7-6 3.7-6zM49.7 46.7c-3.3 0-5.3-2.7-5.3-6.8h10.4c0-4.2-2.1-7.3-6.6-7.3-4 0-7.4 3.2-7.4 7.9 0 5 3.4 7.9 7.5 7.9 3.4 0 5.9-1.9 6.6-5.2l-.2-.1c-.9 2.4-2.8 3.6-5 3.6zm-1.5-13.5c2.5 0 3 2.8 3 6h-6.7c.1-3.6 1.7-6 3.7-6zM64 44.7V24.9h-5.4v.1c1.4.7 1.9 1.5 1.9 3.3v16.4c0 2-.2 2.6-1.7 3.3v.1h6.9V48c-1.5-.6-1.7-1.2-1.7-3.3zM83.1 43.2c-.9 2.4-2.8 3.5-4.9 3.5-3.3 0-5.3-2.7-5.3-6.8h10.4c0-4.2-2.1-7.3-6.6-7.3-4 0-7.4 3.2-7.4 7.9 0 5 3.4 7.9 7.5 7.9 3.4 0 5.9-1.9 6.6-5.2h-.3zm-6.5-10c2.5 0 3 2.8 3 6h-6.7c.1-3.6 1.7-6 3.7-6zM5.7 62.2c0 .4 0 .8-.1 1.1s-.2.5-.3.8c-.1.2-.3.4-.5.5s-.3.2-.5.3-.3.1-.5.1H3c-.2 0-.3-.1-.5-.1-.2-.1-.4-.2-.5-.3-.2-.1-.3-.3-.5-.5s-.3-.5-.3-.8c-.2-.3-.3-.7-.3-1.1v-5.6H0v5.7c0 .4 0 .8.1 1.2s.3.8.5 1.2c.3.4.6.7 1 .9.6.3 1.1.4 1.7.4s1.1-.1 1.7-.4c.4-.2.8-.5 1-.9s.4-.8.5-1.2.1-.8.1-1.2v-5.7h-.9v5.6zM22.2 64l-5-7.4h-1v9.2h1.1v-7.4l5 7.4h1.1v-9.2h-1.1l-.1 7.4zM32.1 56.6h1.1v9.2h-1.1zM45.3 64.6l-2.7-8h-1.2l3.3 9.3H46l3.3-9.3h-1.2zM58.6 61.6H62v-.9h-3.4v-3.1h4.1v-1h-5.2v9.2h5.3l.1-.9h-4.3zM77.3 61.1c.9-1.2.7-2.9-.4-3.9-.6-.5-1.5-.7-2.6-.7-.8 0-1.7.1-2.5.2v9.2h1.1v-3.5h.9c.3 0 .6 0 1-.1l2.1 3.5H78L75.7 62c.6-.1 1.2-.4 1.6-.9zm-3.6.4h-.9v-4c.5-.1 1-.1 1.4-.1.6 0 1.2.1 1.7.5.4.3.7.8.7 1.6 0 .5-.2 1-.5 1.4-.6.5-1.6.6-2.4.6zM91 61.4c-.8-.6-1.9-.7-2.7-1.2-.6-.3-1.1-.7-1.1-1.4 0-1 .8-1.5 2.1-1.5.7 0 1.4.1 2 .4l.1-.9c-.7-.3-1.4-.4-2.1-.4-1.8 0-3.1.9-3.1 2.5 0 .8.4 1.6 1.1 2 1 .6 2.1.7 3 1.3.4.3.7.8.7 1.3 0 1.1-1 1.7-2.6 1.7-.8 0-1.5-.1-2.2-.4l-.1.9c.8.3 1.6.4 2.4.4 1.9 0 3.6-.8 3.6-2.7-.1-.9-.5-1.6-1.1-2zM100.2 56.6h1.1v9.2h-1.1zM109.4 57.6h2.8v8.2h1.1v-8.2h2.9l.1-1h-6.9zM128.8 56.6l-2.6 4.6-2.4-4.6h-1.2l3.1 5.7v3.5h1.1v-3.6l3.2-5.6zM95.6 0v40.5l17.2 7.9 17.2-7.9V0H95.6zm29.3 3.5l.6.6-.7.7-.6-.6.7-.7zm-1.9-.2l2.7 2.7-.9 1-.6-.6.3-.3-1.5-1.6-.3.3-.6-.6.9-.9zm.7 3l1.5 1.5-.6.6-1.5-1.5.6-.6zm-1 .6l-.6-.6 1.2-1.2.6.6-1.2 1.2zm-1.4-3.1l1.5 1.5-.6.6-1.5-1.5.6-.6zm-.2 1.4l.6.6-.3.3 1.6 1.6.3-.3.6.6-.9.8-2.7-2.8.8-.8zm.6 2.7l-.7.7-.6-.6.6-.7.7.6zM116.5 3l.7.7-.8.8c-.3-.2-.6-.3-.9-.5l1-1zm-1.2 1.2c.4.1.7.3 1 .5.7.6 1 1.1 1 1.9 0 1.4-1.1 2.5-2.5 2.5-.6 0-1.3-.3-1.7-.7l.7-.7c.6.6 1.6.6 2.2-.1.3-.3.4-.7.4-1.1s-.2-.8-.5-1l-.2-.2c-.3-.2-.7-.4-1.1-.5h-.1c-.1 0-.2 0-.2-.1-.9-.2-1.9-.3-2.9 0l-.8-.8c1.5-.3 3.2-.2 4.7.3zm-6.2-1l3.3 3.3-.7.7-1.7-1.8-1.5-1.5.6-.7zm-.2 1.7l.7.7c-.3.3-.5.7-.5 1.1 0 .8.7 1.5 1.5 1.5.4 0 .8-.2 1.1-.5l1-1 1.5-1.4c.3.1.7.2 1 .4l-2.8 2.8c-1 1-2.6 1-3.5 0-.5-.5-.7-1.1-.7-1.8s.2-1.4.7-1.8zm-4.6-.2l1.2 1.5-1.5.1-.3-.4-.4 1.2h-.3l.5-2 .8-.4zm-2.6 4l.6-.6h.6l.6.6h-.7v.4l-.2.3-.3-.4v-.3h-.6zm1.7-.8h-1.5l-.3-.3.3-.3h1.5l.3.3-.3.3zm-.7-5.2l.8 1.2-.6 3.2h-.3l-.6-3.2.7-1.2zm-1.7 2l.8.4.5 2h-.3l-.4-1.2-.3.4-1.5-.1 1.2-1.5zm-4.2 6l14.8 6.8-14.8 6.6V10.7zm16 36.4l-16-7.3V25.3l31.9 14.6-15.9 7.2zm16-8.4L114.3 32l14.6-6.5v13.2zm-16-7.3l-14.6-6.7L128.8 11v13.3l-16 7.1z"/>
    <path d="M117.5 21.6h-.2c-.8-.1-1.6-.2-2.3-.4-.9-.2-1.7-.1-2.1.2-.5-.4-1.1-.4-2.1-.2-.8.2-1.5.3-2.3.4h-.2l-.7 4.7.1.5h10.6l.1-.5-.9-4.7zm-.4 4.1c-.8-.1-1.6-.2-2.3-.4l-.5-.1h-.4c-.4 0-.8.1-1.1.3-.4-.3-1-.4-1.5-.3l-.5.1c-.8.2-1.5.3-2.3.4h-.4l.6-3.6c.7-.1 1.5-.2 2.2-.4.9-.2 1.2-.1 1.6.2l.3.3.2-.2c.3-.3.8-.4 1.7-.2.7.2 1.4.3 2.2.4l.6 3.6-.4-.1zM112.9 37.4h1.2c.1-.3.1-.7.1-1 0 0-2 0-3.2.5-.7.4-1.4.9-2 1.5 0-.1 1.1-1.1 3.9-1M115.6 36.4c0 .5-.1.9-.2 1.4-.2 1.1-1 2.2-1.9 3.6-.7 1.1-1 2.3-1.1 3.6h-.9c0-.7.1-1.4.3-2.1.4-1.3 1.3-2.6 2-3.7.8-1.1.8-2.8.8-2.8h1z"/>
  </g>
</svg>