<svg xmlns="http://www.w3.org/2000/svg" viewBox="0 0 510 194" width="510" height="194"><path d="M192.655 53.874h3.134c.565 0 .668 0 1.182.154-.154-.512-.154-.617-.154-1.181V30.812c0-.564 0-.67.154-1.182-.514.155-.615.155-1.182.155h-3.134v-5.086h15.923l5.343 19.159c1.029 3.645 1.232 4.573 1.8 7.962h.255c.667-3.389.821-4.317 1.851-7.912l5.547-19.208h15.771v5.086h-3.135c-.562 0-.667 0-1.18-.155.153.512.153.618.153 1.182v22.035c0 .564 0 .669-.153 1.181.512-.154.616-.154 1.18-.154h3.135v5.084h-14.483v-5.084h2.567c.563 0 .668 0 1.183.154-.154-.512-.154-.617-.154-1.181V39.492c0-4.676.051-6.266.462-10.993l-.258-.049c-1.025 4.673-1.386 6.009-2.771 10.681l-5.908 19.828h-8.319l-5.907-19.828c-1.233-4.315-1.645-5.958-2.672-10.681l-.308.049c.409 4.727.462 6.317.462 10.993v13.355c0 .564 0 .669-.155 1.181.516-.154.617-.154 1.184-.154h2.518v5.084H192.66l-.005-5.084zm66.03 1.748c-2.774 2.825-5.086 3.849-8.375 3.849-5.34 0-8.937-3.133-8.937-7.752 0-5.447 4.059-8.168 12.226-8.168.616 0 1.695.049 2.878.154h.562l.564.05.617.054c-.154-.209-.154-.309-.154-.517v-.412c0-1.54-.152-2.359-.614-3.029-.668-.875-2.104-1.436-3.802-1.436-2.825 0-4.109 1.077-4.469 3.646h-6.627c.051-5.342 3.903-8.168 11.146-8.168 3.696 0 6.935.977 8.783 2.67 1.438 1.336 2.158 3.288 2.158 6.217v10.786c0 .412 0 .512-.155.82.309-.154.412-.154.771-.154l2.465-.05v4.776h-9.194V57.52c0-.716.053-1.028.309-1.798l-.152-.1zm-4.111-7.657c-4.312 0-6.369 1.235-6.369 3.802 0 1.85 1.542 3.135 3.801 3.135 2.158 0 4.11-1.078 5.188-2.825.667-1.183.823-1.902.823-4.008l-3.443-.104zm15.756 6.217l2.566.05c.359 0 .462.053.771.154-.103-.309-.103-.408-.103-.77V39.9c0-.307 0-.409.103-.716-.309.101-.41.101-.771.101l-2.566.054v-4.727h9.964v1.747c0 .819-.104 1.386-.462 2.464l.206.104c2.207-3.595 4.521-4.932 8.269-4.932 5.547 0 8.784 3.183 8.784 8.577v11.044c0 .361 0 .461-.153.77.309-.101.409-.154.77-.154l2.415-.05v4.776h-13.306v-4.776l2.62.05c.359 0 .463.053.771.154-.151-.309-.151-.408-.151-.77v-9.759c0-3.133-1.287-4.572-4.162-4.572-3.441 0-5.345 2.312-5.345 6.371v7.961c0 .361 0 .461-.103.77.31-.101.359-.154.721-.154l2.669-.05v4.776H270.33v-4.777zm54.687-3.545c-.361 5.855-4.162 9.042-10.839 9.042-4.007 0-7.145-1.232-9.248-3.546-2.104-2.309-3.287-5.751-3.287-9.346 0-7.756 4.368-12.84 11.045-12.84 3.391 0 5.495 1.229 7.191 4.157l.15-.049c-.307-1.078-.405-1.541-.405-2.106v-1.335h5.234v9.757h-5.702c-.307-3.645-1.749-5.289-4.568-5.289-3.646 0-5.702 2.876-5.702 7.86 0 4.878 2.002 7.703 5.544 7.703 2.521 0 4.161-1.44 4.572-4.007l6.015-.001zm2.609 3.545l2.566.05c.356 0 .459.053.819.154-.152-.309-.152-.408-.152-.77V29.884c0-.561 0-.665.152-1.176-.512.152-.618.152-1.184.152h-2.206v-4.776h10.221v7.757c0 2.975-.048 3.748-.31 6.47l.154.104c2.568-3.391 4.471-4.419 7.811-4.419 5.442 0 8.883 3.084 8.883 7.961v11.66c0 .361 0 .461-.15.77.356-.101.409-.154.82-.154l2.36-.05v4.776h-13.301v-4.776l2.621.05c.358 0 .457.053.765.154-.1-.309-.1-.408-.1-.77v-9.759c0-3.03-1.388-4.572-4.111-4.572-3.546 0-5.442 2.209-5.442 6.371v7.961c0 .361 0 .461-.154.77.362-.101.461-.154.771-.154l2.674-.05v4.776h-13.508l.001-4.778zm55.713-2.722c-.566 4.878-5.188 8.219-11.51 8.219-7.908 0-12.79-4.985-12.79-12.893 0-4.16 1.03-7.04 3.443-9.4 2.261-2.209 5.442-3.391 9.092-3.391 7.556 0 12.023 4.728 12.023 12.738v2.006h-16.341c-.615 0-.769 0-1.281-.208.31 4.058 2.465 6.32 6.009 6.32 2.568 0 4.313-1.234 4.929-3.391h6.426zm-7.966-7.09c.773 0 .927 0 1.541.155-.458-3.955-2.207-5.906-5.285-5.906-3.188 0-5.139 2.106-5.55 5.906.615-.155.774-.155 1.488-.155h7.806zm16.989 6.063c.259 2.979 2.156 4.673 5.036 4.673 2.204 0 3.546-1.028 3.546-2.568 0-1.693-1.083-2.517-4.265-3.083-5.19-.974-6.73-1.49-8.011-2.668-1.393-1.389-2.01-2.826-2.01-4.931 0-5.138 3.135-8.015 8.892-8.015 2.819 0 4.827 1.028 6.725 3.546l.156-.053c-.207-.771-.306-1.127-.306-1.644v-1.078h5.135v8.064h-5.348c-.354-2.875-1.948-4.366-4.726-4.366-2.104 0-3.491.975-3.491 2.569 0 .769.363 1.439.926 1.747.511.307 1.184.562 2.058.716l3.181.719c4.111.873 5.497 1.544 6.783 3.187.922 1.181 1.332 2.668 1.332 4.518 0 4.983-3.285 7.809-9.193 7.809-3.133 0-4.772-.875-6.985-3.75l-.205.103c.31.771.416 1.233.416 1.745v1.285h-5.243v-8.526l5.597.001zm17.348-15.821h2.777c.562 0 .665 0 1.179.103-.154-.516-.154-.564-.154-1.131v-3.492l7.04-2.26v5.752c0 .566 0 .615-.159 1.131.517-.103.62-.103 1.183-.103h5.651v4.827h-5.651c-.562 0-.666 0-1.183-.154.159.516.159.615.159 1.181v11.353c0 2.104.562 2.929 1.949 2.929 1.488 0 2.057-.924 2.206-3.65h4.061v.874c0 4.985-2.362 7.346-7.343 7.346-5.289 0-7.913-2.26-7.913-6.83V40.466c0-.566 0-.666.156-1.181-.517.154-.617.154-1.181.154h-2.777v-4.827zm45.294 16.848c-.564 4.878-5.188 8.219-11.507 8.219-7.912 0-12.792-4.985-12.792-12.893 0-4.16 1.031-7.04 3.443-9.4 2.261-2.209 5.447-3.391 9.092-3.391 7.551 0 12.021 4.728 12.021 12.738v2.006h-16.334c-.619 0-.771 0-1.287-.208.31 4.058 2.468 6.32 6.009 6.32 2.571 0 4.318-1.234 4.937-3.391h6.418zm-7.956-7.09c.765 0 .921 0 1.537.155-.467-3.955-2.212-5.906-5.294-5.906-3.184 0-5.135 2.106-5.546 5.906.617-.155.769-.155 1.487-.155h7.816zm10.715 9.812l2.566.05c.357 0 .468.053.824.154-.153-.309-.153-.408-.153-.77V39.9c0-.307 0-.409.153-.716-.356.101-.467.101-.824.101l-2.566.054v-4.727h9.708v2.413c0 1.029-.102 1.852-.517 3.749l.261.053c1.797-4.776 4.157-6.729 7.856-6.729.925 0 1.437.052 2.672.255v5.958c-.977-.154-1.387-.203-2.157-.203-4.928 0-7.601 2.617-7.601 7.447v5.548c0 .666 0 .77-.104 1.282.515-.101.669-.154 1.229-.154l2.927-.05v4.776h-14.275l.001-4.775zm-265.108 48.097h3.134c.565 0 .668 0 1.182.154-.154-.514-.154-.617-.154-1.183V79.216c0-.564 0-.669.154-1.181-.514.154-.615.154-1.182.154h-3.134v-5.084h15.923l5.343 19.157c1.029 3.647 1.232 4.574 1.8 7.96h.255c.667-3.387.821-4.312 1.851-7.91l5.547-19.208h15.771v5.084h-3.135c-.562 0-.667 0-1.18-.154.153.512.153.617.153 1.181v22.036c0 .566 0 .669-.153 1.182.512-.153.616-.153 1.18-.153h3.135v5.084h-14.483v-5.084h2.567c.563 0 .668 0 1.183.153-.154-.513-.154-.615-.154-1.182V87.899c0-4.678.051-6.269.462-10.996l-.258-.049c-1.025 4.673-1.386 6.009-2.771 10.683l-5.908 19.827h-8.319l-5.907-19.827c-1.233-4.315-1.645-5.96-2.672-10.683l-.308.049c.409 4.728.462 6.318.462 10.996v13.353c0 .566 0 .669-.155 1.182.516-.153.617-.153 1.184-.153h2.518v5.084H192.66l-.005-5.086zm72.554-2.413c-.563 4.877-5.188 8.218-11.507 8.218-7.91 0-12.789-4.984-12.789-12.892 0-4.16 1.027-7.04 3.441-9.4 2.261-2.209 5.442-3.392 9.092-3.392 7.551 0 12.021 4.728 12.021 12.739v2.005H249.13c-.615 0-.771 0-1.282-.208.309 4.058 2.465 6.318 6.008 6.318 2.57 0 4.316-1.232 4.933-3.387l6.42-.001zm-7.961-7.092c.771 0 .925 0 1.54.155-.462-3.952-2.208-5.905-5.29-5.905-3.186 0-5.138 2.105-5.548 5.905.617-.155.771-.155 1.488-.155h7.81zm10.051-9.757h2.772c.564 0 .669 0 1.181.103-.152-.515-.152-.564-.152-1.13v-3.493l7.037-2.259v5.751c0 .566 0 .615-.155 1.13.517-.103.619-.103 1.184-.103h5.65v4.828h-5.65c-.563 0-.667 0-1.184-.155.155.517.155.615.155 1.181v11.353c0 2.106.564 2.93 1.952 2.93 1.491 0 2.054-.922 2.208-3.649h4.059v.876c0 4.984-2.362 7.344-7.347 7.344-5.29 0-7.909-2.26-7.909-6.83V88.871c0-.566 0-.665.152-1.181-.513.155-.615.155-1.181.155h-2.772v-4.828zm21.356 19.569l2.57.051c.357 0 .462.053.82.153-.153-.308-.153-.408-.153-.771V88.305c0-.307 0-.406.153-.716-.358.101-.463.101-.82.101l-2.57.054v-4.727h9.708v2.414c0 1.028-.102 1.851-.514 3.75l.259.052c1.797-4.777 4.159-6.729 7.858-6.729.924 0 1.438.051 2.67.255v5.959c-.975-.155-1.391-.205-2.157-.205-4.931 0-7.604 2.617-7.604 7.449v5.546c0 .667 0 .771-.102 1.282.513-.101.668-.153 1.232-.153l2.925-.051v4.777h-14.278l.003-4.777zm47.142-7.447c0 7.806-5.137 12.791-13.098 12.791-3.184 0-6.776-1.285-8.885-3.082-2.518-2.105-3.958-5.703-3.958-9.708 0-3.595 1.235-7.039 3.391-9.143 2.313-2.259 5.855-3.596 9.605-3.596 7.808-.001 12.945 5.036 12.945 12.738zm-18.745-.051c0 4.877 2.208 7.857 5.803 7.857 3.544 0 5.805-3.029 5.805-7.703 0-4.827-2.21-7.86-5.754-7.86-3.646 0-5.854 2.929-5.854 7.706zm20.17 16.435h2.206c.562 0 .668 0 1.182.156-.152-.517-.152-.615-.152-1.182V88.305c0-.307 0-.406.152-.716-.356.101-.409.101-.822.101l-2.564.054v-4.727h9.762v1.798c0 .824-.105 1.385-.417 2.67l.208.051c2.006-3.542 4.673-5.239 8.323-5.239 6.675 0 10.887 4.93 10.887 12.895 0 7.808-4.054 12.738-10.529 12.738-3.698 0-6.42-1.593-8.217-4.881l-.205.104c.356 1.953.409 2.617.409 4.57v2.776c0 .565 0 .665-.101 1.181.512-.154.562-.154 1.126-.154h2.672v4.777h-13.919v-4.78h-.001zm9.912-16.177c0 4.619 2.415 7.654 5.958 7.654 3.7 0 5.858-2.877 5.858-7.808 0-4.881-2.159-7.86-5.603-7.86-3.85 0-6.213 3.083-6.213 8.014zm46.885-.207c0 7.806-5.137 12.791-13.102 12.791-3.186 0-6.783-1.285-8.892-3.082-2.511-2.105-3.953-5.703-3.953-9.708 0-3.595 1.235-7.039 3.395-9.143 2.312-2.259 5.854-3.596 9.604-3.596 7.811-.001 12.948 5.036 12.948 12.738zm-18.753-.051c0 4.877 2.21 7.857 5.804 7.857 3.548 0 5.805-3.029 5.805-7.703 0-4.827-2.208-7.86-5.75-7.86-3.649 0-5.859 2.929-5.859 7.706zm20.487 7.498l2.562.051c.413 0 .465 0 .824.153-.154-.308-.154-.408-.154-.771V78.29c0-.563 0-.667.154-1.179-.519.155-.615.155-1.184.155h-2.202v-4.779h10.219v29.535c0 .36 0 .461-.106.77.312-.152.411-.152.771-.152l2.36-.052v4.777h-13.244v-4.779zm16.11 0l2.573.051c.357 0 .462.053.825.153-.159-.308-.159-.408-.159-.771V88.305c0-.307 0-.406.159-.716-.363.101-.468.101-.825.101l-2.573.054v-4.727h10.229v19.004c0 .36 0 .461-.156.77.36-.102.461-.152.825-.152l2.36-.052v4.777h-13.258v-4.778zm2.983-30.099h7.244v6.984h-7.244v-6.984zm11.037 10.53h2.771c.566 0 .666 0 1.184.103-.153-.515-.153-.564-.153-1.13v-3.493l7.035-2.259v5.751c0 .566 0 .615-.154 1.13.515-.103.623-.103 1.186-.103h5.65v4.828h-5.65c-.562 0-.671 0-1.186-.155.154.517.154.615.154 1.181v11.353c0 2.106.564 2.93 1.958 2.93 1.485 0 2.052-.922 2.205-3.649h4.061v.876c0 4.984-2.362 7.344-7.347 7.344-5.295 0-7.912-2.26-7.912-6.83V88.871c0-.566 0-.665.153-1.181-.518.155-.615.155-1.184.155h-2.771v-4.828zm38.049 21.01c-2.774 2.824-5.084 3.85-8.368 3.85-5.346 0-8.942-3.134-8.942-7.754 0-5.446 4.06-8.168 12.229-8.168.615 0 1.691.05 2.876.155h.562l.567.05.614.053c-.15-.208-.15-.307-.15-.516v-.411c0-1.541-.158-2.361-.616-3.03-.668-.874-2.104-1.439-3.801-1.439-2.827 0-4.112 1.083-4.473 3.648h-6.623c.051-5.343 3.905-8.168 11.145-8.168 3.7 0 6.934.978 8.784 2.671 1.437 1.336 2.16 3.288 2.16 6.217v10.788c0 .41 0 .512-.159.818.312-.152.418-.152.773-.152l2.466-.052v4.777h-9.198v-1.439c0-.715.054-1.022.311-1.797l-.157-.101zm-4.112-7.657c-4.31 0-6.364 1.236-6.364 3.805 0 1.847 1.538 3.134 3.801 3.134 2.155 0 4.104-1.078 5.188-2.826.665-1.184.819-1.901.819-4.006l-3.444-.107zm15.397 6.216l2.566.051c.358 0 .465.053.771.153-.106-.308-.106-.408-.106-.771V88.305c0-.307 0-.406.106-.716-.308.101-.412.101-.771.101l-2.566.054v-4.727h9.967v1.747c0 .822-.104 1.388-.464 2.464l.207.104c2.206-3.594 4.52-4.932 8.268-4.932 5.549 0 8.786 3.185 8.786 8.578v11.043c0 .36 0 .461-.156.77.311-.102.414-.152.772-.152l2.412-.052v4.777h-13.306v-4.777l2.618.052c.36 0 .468.051.772.152-.154-.307-.154-.408-.154-.77v-9.76c0-3.133-1.282-4.573-4.159-4.573-3.44 0-5.347 2.314-5.347 6.371v7.961c0 .36 0 .461-.1.77.306-.102.358-.152.723-.152l2.666-.052v4.777h-13.508l.003-4.777zm-277.425 23.339c0-.562 0-.614.153-1.127-.513.099-.614.099-1.181.099h-3.597v-3.387h14.64v3.387h-4.416c-.516 0-.618 0-1.131-.099.102.513.102.565.102 1.127v17.517c0 2.466.515 4.16 1.542 5.703 1.54 2.207 4.317 3.541 7.294 3.541 5.753 0 9.041-3.8 9.041-10.375v-16.386c0-.562 0-.614.152-1.127-.513.099-.616.099-1.129.099h-4.366v-3.387h14.022v3.387h-3.546c-.514 0-.616 0-1.128-.099.102.513.102.565.102 1.127v15.821c0 4.828-.514 6.986-2.312 9.555-2.261 3.286-6.216 5.238-10.735 5.238-4.775 0-8.577-1.643-10.991-4.672-1.797-2.315-2.518-4.829-2.518-8.835l.002-17.107zm40.199 10.841c1.335-3.75 4.058-5.549 8.318-5.549 5.24 0 8.375 2.827 8.375 7.45v12.894c0 .563 0 .664-.155 1.181.514-.155.618-.155 1.183-.155h2.825v3.186h-12.379v-3.186h3.187c.513 0 .614 0 1.128.155-.103-.517-.103-.617-.103-1.181v-11.408c0-3.491-1.747-5.393-5.035-5.596-4.211-.205-7.036 2.774-7.036 7.602v9.402c0 .512 0 .664-.153 1.181.516-.155.617-.155 1.183-.155h3.235v3.186h-13.046v-3.186h3.441c.563 0 .615 0 1.129.155-.104-.517-.104-.617-.104-1.181v-15.465c0-.615 0-.771.104-1.283-.564.154-.668.154-1.283.154l-3.287.051v-3.184h8.526v2.209c0 .666-.104 1.281-.359 2.669l.306.054zm31.058 14.793c0 .564 0 .666-.153 1.182.516-.155.618-.155 1.183-.155h3.235v3.185H260.32v-3.185h3.391c.564 0 .615 0 1.129.155-.103-.518-.103-.617-.103-1.182v-15.465c0-.615 0-.771.103-1.281-.514.153-.667.153-1.23.153l-3.288.05v-3.183h8.73l-.003 19.726zm-.05-30.05v4.675h-4.726v-4.675h4.726zm22.592 16.283a50.179 50.179 0 0 1 1.235-2.979c-1.028.153-1.235.153-2.364.153l-2.21.05v-3.183h11.456v3.183l-2.772-.103-8.323 20.856h-5.394l-8.474-20.856-2.774.103v-3.183h11.712v3.183l-2.159-.05c-1.078 0-1.385 0-2.36-.153a72.255 72.255 0 0 1 1.23 2.926l3.393 8.938c1.078 2.775 1.283 3.338 2.054 5.908h.206c.771-2.57.977-3.133 2.055-5.908l3.489-8.885zm31.37 10.583c-.771 4.877-5.085 8.011-11.093 8.011-7.498 0-12.276-4.825-12.276-12.379 0-7.912 4.677-12.79 12.276-12.79 5.552 0 9.503 2.827 10.784 7.704.518 1.853.617 2.826.617 5.854h-18.337c-.411 0-.513 0-.87-.152.102 4.831 3.337 8.373 7.754 8.373 3.854 0 6.525-1.693 7.191-4.62l3.954-.001zm-5.235-6.732c.561 0 .667 0 1.13.156-.259-4.418-2.926-7.244-7.088-7.244-4.113 0-7.04 2.775-7.604 7.244.668-.156.875-.156 1.645-.156h11.917zm16.369-4.159c.871-4.109 3.542-6.269 7.807-6.269.567 0 1.184.101 1.797.257v3.851c-.875-.462-1.336-.615-2.31-.615-4.37 0-7.04 3.288-7.04 8.731v8.119c0 .563 0 .664-.151 1.18.459-.154.615-.154 1.184-.154h4.104v3.186h-13.919v-3.186h3.389c.567 0 .672 0 1.184.154-.15-.516-.15-.616-.15-1.18v-15.466c0-.614 0-.771.15-1.282-.567.154-.716.154-1.284.154l-3.287.051v-3.184h8.527v2.518c0 .203-.052.769-.154 1.539 0 .31-.05.875-.103 1.539l.256.057zm31.115-5.65v7.807h-3.489c0-3.133-2.366-5.084-6.372-5.084-3.491 0-5.651 1.439-5.651 3.698 0 .771.31 1.489.875 1.952.667.566 1.34.82 3.392 1.078l2.979.461c3.084.462 5.034 1.078 6.266 2.056 1.439 1.128 2.263 2.925 2.263 4.88 0 4.778-3.646 7.704-9.604 7.704-3.7 0-6.009-1.233-7.448-3.952l-.207.049c.207.875.26 1.285.26 1.798v1.491h-3.438v-8.27h3.438c.207 3.387 2.929 5.493 7.04 5.493.87 0 2.514-.308 3.437-.716 1.184-.518 2.058-1.748 2.058-2.93 0-1.438-.567-2.414-1.646-2.931-.767-.356-1.69-.562-3.847-.87l-2.672-.308c-5.499-.824-7.606-2.671-7.606-6.833 0-2.363 1.083-4.266 3.137-5.496 2.001-1.232 4.471-1.848 7.033-1.695 3.188.205 5.084 1.233 6.374 3.646l.255-.051c-.255-.822-.308-1.234-.308-1.643v-1.336h3.481zm11.596 19.725c0 .564 0 .666-.153 1.182.511-.155.62-.155 1.184-.155h3.232v3.185h-12.994v-3.185h3.393c.562 0 .613 0 1.131.155-.103-.518-.103-.617-.103-1.182v-15.465c0-.615 0-.771.103-1.281-.518.153-.668.153-1.232.153l-3.29.05v-3.183h8.731l-.002 19.726zm-.05-30.05v4.675h-4.729v-4.675h4.729zm21.155 26.866c0 3.03-.257 4.261-1.081 5.548-1.182 1.797-2.615 2.463-5.597 2.463-1.951 0-3.337-.411-4.467-1.385-1.489-1.183-2.003-2.722-2.003-5.856v-13.05c0-.614 0-.771.149-1.282-.562.154-.716.154-1.231.154l-3.647.051v-3.184h3.7c.564 0 .67 0 1.18.152-.149-.514-.149-.614-.149-1.18v-4.316l4.366-1.54v5.856c0 .564 0 .666-.156 1.18.517-.152.615-.152 1.183-.152h6.782v3.184l-6.73-.051c-.567 0-.718-.053-1.233-.154.156.512.156.668.156 1.232v13.1c0 1.744.152 2.414.613 2.979.462.617 1.237.924 2.109.924 1.127 0 2.05-.615 2.36-1.643.204-.616.257-1.391.358-3.03h3.338zm2.767-13.461l-2.622.104v-3.184h11.709v3.184l-2.312-.051c-1.126 0-1.437 0-2.465-.104.668 1.23.725 1.439 1.438 3.082l3.595 8.32c1.083 2.467 1.342 3.082 2.107 5.445h.207c.771-2.363.925-2.826 2.056-5.445l3.437-8.373c.674-1.541.775-1.799 1.393-3.029-1.026.104-1.336.104-2.463.104l-2.267.051v-3.184h11.25v3.184l-2.464-.104-9.967 23.166c-1.49 3.495-2.415 4.984-3.387 5.754-1.029.77-2.62 1.182-4.472 1.182-1.231 0-2.362-.104-3.187-.309v-3.236c.515.104 1.593.153 2.211.153 2.465 0 2.977-.412 4.262-3.134l1.281-2.67-9.34-20.906zm-228.885 12.061v.002c-15.605 10.937-54.725 22.162-61.281 2.518-11.895 8.951-19.017 33.349-22.048 45.463-3.03-12.114-10.152-36.509-22.046-45.461-6.559 19.645-45.674 8.417-61.277-2.518h-.004c-1.664-18.981 8.168-58.474 28.458-54.325-1.804-14.769-19.352-33.131-28.333-41.82v-.004c12.011 3.438 36.689 9.453 50.386 3.633-13.74-15.499 15.542-43.76 32.816-51.806 17.274 8.046 46.558 36.308 32.813 51.807 13.695 5.823 38.377-.195 50.388-3.635l.004.003c-8.982 8.683-26.532 27.052-28.336 41.818 20.291-4.148 30.124 35.342 28.46 54.325zM88.465 11.163C74.8 18.141 60.717 30.6 58.44 45.742l.019.001c17.167-5.788 26.724 17.905 30.007 31.153 3.281-13.248 12.837-36.941 30.009-31.153l.014-.001c-2.278-15.142-16.362-27.601-30.024-34.579zm75.907 131.465c.786-15.321-2.964-33.75-14.939-43.288l-.006.012c-3.572 17.756-28.876 14.186-41.994 10.404 9.838 9.471 25.58 29.594 11.982 41.571l-.002.007c14.25 5.604 32.08-.367 44.959-8.706zm-151.814-.005v.004c12.882 8.341 30.712 14.311 44.958 8.708l-.005-.011c-13.59-11.973 2.148-32.098 11.985-41.57-13.118 3.783-38.421 7.354-41.994-10.404l-.007-.011c-11.972 9.536-15.718 27.97-14.937 43.284zm75.907-40.107c-13.665 7.7-27.748 21.448-30.024 38.148h.019c17.167-6.383 26.724 19.763 30.007 34.38 3.281-14.617 12.837-40.763 30.009-34.38h.014c-2.279-16.7-16.363-30.448-30.025-38.148zm-3.21-5.564c.163-15.686-4.694-34.753-18.026-45.073l-.013.009c-3.051 18.056-30.473 13.268-44.771 8.804C33.46 70.835 51.319 92.19 37.207 103.861l-.003.017c15.604 6.38 34.551 1.052 48.051-6.926zm6.419 0l.007.002c13.495 7.983 32.444 13.305 48.049 6.925l-.005-.018c-14.112-11.668 3.746-33.021 14.763-43.169-14.297 4.467-41.722 9.257-44.771-8.804l-.007-.008C96.373 62.202 91.513 81.269 91.674 96.952z"/></svg>