<svg xmlns="http://www.w3.org/2000/svg" viewBox="0 0 367.45 135.41"><defs><style>.cls-1{fill:#231f20;}.cls-2{fill:#98002e;}</style></defs><g id="Layer_2" data-name="Layer 2"><g id="_Layer_" data-name="&lt;Layer&gt;"><path class="cls-1" d="M138.51,91.09a.06.06,0,0,0,.05.06c1.9.14,2.65.51,2.79,1.34a34.63,34.63,0,0,1,.22,4.8V99c0,4.53-1.6,6.73-4.91,6.73-3.08,0-4.64-2.16-4.64-6.44v-5c0-2.69.14-2.86,2.49-3a6.51,6.51,0,0,0,.08-.94.11.11,0,0,0-.09-.09h-8.13a5.41,5.41,0,0,0-.09.94c2.52.28,2.65.42,2.65,3.14V100c0,3,.66,4.89,2.08,6a7.63,7.63,0,0,0,4.87,1.4,7.3,7.3,0,0,0,5.18-1.89c1.77-1.78,2-4.47,2-5.92V97.29a36.8,36.8,0,0,1,.22-4.81c.14-.82.88-1.22,2.42-1.3a6.51,6.51,0,0,0,.08-.94c0-.06-7.21-.09-7.21-.09A5.48,5.48,0,0,0,138.51,91.09Z"/><path class="cls-1" d="M161.16,91.09h0a.06.06,0,0,0,.05.06c1.89.14,2.65.51,2.79,1.34a36.46,36.46,0,0,1,.22,4.8v5c-.37-.42-2.17-2.41-11-12.13l-4.65,0a5.41,5.41,0,0,0-.09.94c2.51.27,3.13.73,3.13,3.73v5a35.07,35.07,0,0,1-.22,4.77c-.14.84-.91,1.26-2.42,1.34a6.51,6.51,0,0,0-.08.94c.05.06,7.18.1,7.18.1a6.87,6.87,0,0,0,.09-1c-1.93-.2-2.7-.59-2.8-1.43a32.49,32.49,0,0,1-.23-4.77V94.51c.39.46,2.25,2.56,11.26,12.61,0,0,1.26,0,1.26,0l.06,0,0-.06V97.29a34.19,34.19,0,0,1,.23-4.81c.14-.82.88-1.22,2.41-1.3a6.6,6.6,0,0,0,.09-.94c-.06-.06-7.22-.09-7.22-.09A6.6,6.6,0,0,0,161.16,91.09Z"/><path class="cls-1" d="M171.79,91.09a.06.06,0,0,0,.05.06c2.35.21,2.57.31,2.57,3v8.73c0,2.65-.15,2.82-2.53,3a6.6,6.6,0,0,0-.09.94c.06.06,8.23.1,8.23.1a6.87,6.87,0,0,0,.09-1c-2.47-.28-2.61-.45-2.61-3.1V94.19c0-2.73.21-2.83,2.53-3a6.51,6.51,0,0,0,.08-.94c-.05-.06-8.22-.09-8.22-.09A5.48,5.48,0,0,0,171.79,91.09Z"/><path class="cls-1" d="M195.16,91.09h0s0,0,0,0,.05.05.89.16c.64.08.95.19,1.08.4a.63.63,0,0,1,.08.32,2.71,2.71,0,0,1-.19.84c-.55,1.55-2.56,7-3.89,10l-.77-1.76-.6-1.42-2.93-7a2.45,2.45,0,0,1-.22-.81.39.39,0,0,1,0-.2c.09-.15.33-.23.81-.29l1-.15a6.51,6.51,0,0,0,.08-.94c0-.06-7.7-.09-7.7-.09a6.6,6.6,0,0,0-.09.94c1.88.28,2.27.47,3,2.28l1.68,4,4.14,9.82a.16.16,0,0,0,.08.06h1c2.41-5.71,4.79-11.2,5.71-13.08,1.19-2.44,1.55-2.75,3.48-3a8.32,8.32,0,0,0,.08-.94c-.06-.06-6.81-.09-6.81-.09A6.6,6.6,0,0,0,195.16,91.09Z"/><path class="cls-1" d="M204.6,91.09a.06.06,0,0,0,.05.06c2.35.18,2.49.35,2.49,3v8.69c0,2.72-.13,2.86-2.72,3.05a8.32,8.32,0,0,0-.08.94c.06.06,14.19.1,14.19.1a40.44,40.44,0,0,0,1.06-4.44c0-.07-.05-.11-1-.22a6.68,6.68,0,0,1-1.42,2.56c-.54.53-1.61.79-3.3.79a7.55,7.55,0,0,1-2.94-.28c-.46-.24-.66-1-.66-2.46V98.85c0,.06,2.86.09,2.86.09,2.33,0,2.34.08,2.63,2.09a7.59,7.59,0,0,0,1,.08c.06-.06.09-5.58.09-5.58a7.69,7.69,0,0,0-1-.09c-.38,1.94-.4,2-2.72,2h-3c.05,0,.09-5.2.09-5.2,0-.85,0-.85,1-.85h2.09c1.82,0,2.59.4,2.92.72a4.69,4.69,0,0,1,.91,2.35s.08.07,1,0c.06,0,.08-.07-.22-4.27,0,0-13.26-.08-13.26-.08A6.6,6.6,0,0,0,204.6,91.09Z"/><path class="cls-1" d="M223.05,90.15a0,0,0,0,0-.05,0l0,.89c2.33.28,2.54.37,2.54,3.1v8.73c0,2.65-.15,2.82-2.57,3a6.51,6.51,0,0,0-.08.94c.05.06,8.26.1,8.26.1a6.87,6.87,0,0,0,.09-1c-2.47-.28-2.61-.45-2.61-3.1v-3.2a7.26,7.26,0,0,0,1,.08c1,0,1.25.12,1.75,1l.42.69a39.33,39.33,0,0,0,2.16,3.38c1.09,1.44,2.45,2.39,5.55,2.35h.56c.06,0,.09-.06.21-.82a6,6,0,0,1-2-1.2,17.09,17.09,0,0,1-2.19-2.68c-.89-1.26-2-2.92-2.41-3.66,0,0,.27-.07.27-.07l.12,0c2.14-.85,3.23-2.26,3.23-4.19A4,4,0,0,0,235.45,91a8.49,8.49,0,0,0-4.3-.86Zm5.54,2.21c0-1,0-1,1.66-1,1.81,0,3.75.92,3.75,3.49A3.82,3.82,0,0,1,232.66,98a4.47,4.47,0,0,1-2.45.59h-1.68Z"/><path class="cls-1" d="M243.44,94.79c0,2.93,2.91,4.1,4.83,4.86s3.67,1.61,3.67,3.57c0,1.78-1.25,2.89-3.26,2.89-2.51,0-4.34-2.62-4.84-4.48a.14.14,0,0,0-.1-.07l-1,.08c-.05,0-.08.08.09,1,.26,1.45.54,3,.69,3.41a8.87,8.87,0,0,0,4.83,1.37c3.79,0,6.43-2.2,6.43-5.35s-2.63-4.35-5.28-5.34c-1.6-.61-3.41-1.29-3.41-3.13A2.59,2.59,0,0,1,248.94,91c2.58,0,3.58,2.32,3.94,3.7,0,0,.08.07,1,0,.05,0,.08-.08-.1-1.34l-.49-2.91a3.27,3.27,0,0,0-.41-.17,11.46,11.46,0,0,0-3.38-.57C245.89,89.7,243.44,91.74,243.44,94.79Z"/><path class="cls-1" d="M258.73,91.09a.06.06,0,0,0,0,.06c2.35.21,2.57.31,2.57,3v8.73c0,2.65-.15,2.82-2.53,3a6.6,6.6,0,0,0-.09.94c.06.06,8.23.1,8.23.1a6.87,6.87,0,0,0,.09-1c-2.47-.28-2.61-.45-2.61-3.1V94.19c0-2.73.21-2.83,2.53-3a8.32,8.32,0,0,0,.08-.94c-.06-.06-8.23-.09-8.23-.09A6.6,6.6,0,0,0,258.73,91.09Z"/><path class="cls-1" d="M271,92.24l-.17,2.43s0,0,0,0l.07,0,.88,0a6.76,6.76,0,0,1,1.07-2.5c.38-.41,1.06-.83,3.29-.83h1.12l-.05,11.48c0,2.65-.15,2.82-2.71,3a6.6,6.6,0,0,0-.09.94c.05.06,8.71.1,8.71.1a6.87,6.87,0,0,0,.09-1c-2.75-.28-2.91-.45-2.91-3.1V91.36s1.59.08,1.59.08c1.55,0,2.45.21,2.92.69a4.89,4.89,0,0,1,.94,2.56s.08.08,1,0c.06,0,.09-.07-.25-5.09a2.66,2.66,0,0,0-.57-.09c-.48.52-.61.64-1.27.64H273.15a1.29,1.29,0,0,1-1.34-.6s-.56,0-.56,0S271.16,89.57,271,92.24Z"/><path class="cls-1" d="M299.32,91.09h0a.05.05,0,0,0,0,0s0,.05,1.15.2c.42,0,.7.11.78.24a.21.21,0,0,1,0,.12,2.51,2.51,0,0,1-.29.82l-.33.68c-.62,1.31-1.56,3.27-2.52,4.92l-.34-.55L296.89,96l-2.1-3.67a1.59,1.59,0,0,1-.22-.6.18.18,0,0,1,0-.11c0-.12.25-.19.64-.24l1.16-.15a8.18,8.18,0,0,0,.07-.94c-.05-.06-7.55-.09-7.55-.09a6.6,6.6,0,0,0-.09.94c1.72.27,2,.31,2.92,1.91,0,0,0,0,.5.82l3.05,5.12a2.61,2.61,0,0,1,.55,1.71v2.27c0,2.68-.13,2.82-2.79,3a6.6,6.6,0,0,0-.09.94s0,0,0,.06l.05,0h8.77a5.61,5.61,0,0,0,.09-1c-2.82-.28-3-.45-3-3.1v-2.69a3,3,0,0,1,.58-1.78c1.19-2.09,2.32-3.9,3.36-5.4l.05-.07c.94-1.37,1.11-1.62,3.05-1.8a6.51,6.51,0,0,0,.08-.94c-.05-.06-6.65-.09-6.65-.09A5.41,5.41,0,0,0,299.32,91.09Z"/><path class="cls-1" d="M149.7,40.7a.22.22,0,0,0-.22.22v1.16a.21.21,0,0,0,.21.22c3.2.15,4.47.81,4.7,2.41a80.23,80.23,0,0,1,.4,9.49V65.67L134,40.78a.22.22,0,0,0-.18-.08h-7.31a.22.22,0,0,0-.23.22v1.16a.21.21,0,0,0,.21.22c2,.15,3.32.46,4.25,1.62s.9,1.8.9,5.42V60.21a80.66,80.66,0,0,1-.4,9.5c-.23,1.61-1.42,2.31-4.09,2.4a.24.24,0,0,0-.22.23v1.15a.23.23,0,0,0,.23.23h12a.23.23,0,0,0,.23-.23V72.34a.23.23,0,0,0-.22-.23c-3.19-.14-4.46-.79-4.69-2.41a80.35,80.35,0,0,1-.4-9.49V48l21.44,26a.25.25,0,0,0,.18.08H157a.23.23,0,0,0,.23-.23V54.2a80.23,80.23,0,0,1,.4-9.49c.23-1.61,1.41-2.31,4.09-2.41a.22.22,0,0,0,.22-.22V40.92a.22.22,0,0,0-.23-.22Z"/><path class="cls-1" d="M163.93,57.56c0,9.8,6.9,16.91,16.41,16.91,9.89,0,17.07-7.45,17.07-17.71,0-9.59-6.95-16.82-16.17-16.82C170,39.94,163.93,49,163.93,57.56Zm5.32-1.45c0-9.71,5.37-14.06,10.69-14.06,7.49,0,12.15,6.35,12.15,16.56,0,8.35-4.2,13.75-10.69,13.75C174.24,72.36,169.25,65.68,169.25,56.11Z"/><path class="cls-1" d="M266.62,40.7a.22.22,0,0,0-.23.22v1.16a.22.22,0,0,0,.2.22l1.45.2c1,.12,1.52.29,1.76.63a1.35,1.35,0,0,1,.19.8,9.4,9.4,0,0,1-.34,2C268.8,49.61,266,59.73,264,66l-8.89-24.61a.24.24,0,0,0-.22-.16h-1.2a.24.24,0,0,0-.22.16L245.62,66,239,45.16a5.51,5.51,0,0,1-.33-1.51l.12-.49c.21-.32.72-.5,1.87-.66l1.55-.2a.23.23,0,0,0,.21-.22V40.92a.23.23,0,0,0-.23-.22H229.94a.22.22,0,0,0-.23.22v1.16a.23.23,0,0,0,.21.22c2.67.29,3.42.53,4.76,4.66l8.67,26.9a.22.22,0,0,0,.22.16H245a.23.23,0,0,0,.22-.15l8-24c.15.42,8.82,24,8.82,24a.24.24,0,0,0,.22.15h1.35a.22.22,0,0,0,.22-.16c4.09-13.39,7.84-25.22,8.31-26.54,1.63-4.49,1.91-4.63,5.13-5a.23.23,0,0,0,.2-.22V40.92a.22.22,0,0,0-.23-.22Z"/><path class="cls-1" d="M280.55,40.7a.22.22,0,0,0-.23.22v1.16a.21.21,0,0,0,.21.22c3.94.29,4.3.48,4.3,5.89v18c0,5.41-.36,5.59-4.3,5.88a.23.23,0,0,0-.21.23v1.15a.23.23,0,0,0,.23.23h13.22a.23.23,0,0,0,.23-.23V72.34a.23.23,0,0,0-.21-.23c-3.93-.29-4.3-.47-4.3-5.88v-18c0-5.41.37-5.6,4.3-5.89a.21.21,0,0,0,.21-.22V40.92a.22.22,0,0,0-.23-.22Z"/><path class="cls-1" d="M297.89,57.66c0,8.37,5.64,16.81,18.22,16.81a44.8,44.8,0,0,0,9.48-1.41.21.21,0,0,0,.15-.13c.63-1.48,1.42-4.2,2.06-6.38l.51-1.71a.32.32,0,0,0,0-.19l-.17-.1-1.25-.15a.21.21,0,0,0-.23.13c-2.32,5-4.77,7.83-10.47,7.83-7.8,0-12.85-6.22-12.85-15.85,0-7,3.37-14.46,12.8-14.46,4.52,0,7.85,1.22,9.4,7.15a.23.23,0,0,0,.24.17l1.25-.1.16-.08,0-.17L327,46.85l-.66-5.4a.22.22,0,0,0-.18-.2l-.82-.19a33.91,33.91,0,0,0-8.25-1.12C305.78,39.94,297.89,47.23,297.89,57.66Z"/><path class="cls-1" d="M354,40.7a.22.22,0,0,0-.23.22v1.16a.21.21,0,0,0,.21.22c3.84.29,4.2.48,4.2,5.89v6.89H341.24V48.19c0-5.41.35-5.6,4.1-5.89a.21.21,0,0,0,.21-.22V40.92a.22.22,0,0,0-.23-.22H332.1a.22.22,0,0,0-.23.22v1.16a.21.21,0,0,0,.21.22c4.18.3,4.5.45,4.5,5.89v18c0,5.41-.37,5.59-4.3,5.88a.23.23,0,0,0-.21.23v1.15a.23.23,0,0,0,.23.23h13.22a.23.23,0,0,0,.23-.23V72.34a.23.23,0,0,0-.21-.23c-3.93-.29-4.3-.47-4.3-5.88V57.54h16.93v8.69c0,5.44-.32,5.59-4.6,5.88a.24.24,0,0,0-.21.23v1.15a.23.23,0,0,0,.23.23h13.53a.23.23,0,0,0,.23-.23V72.34a.24.24,0,0,0-.21-.23c-3.94-.29-4.3-.47-4.3-5.88v-18c0-5.41.37-5.6,4.39-5.89a.22.22,0,0,0,.22-.22V40.92a.23.23,0,0,0-.23-.22Z"/><path class="cls-1" d="M201.82,40.64a.32.32,0,0,0-.32.32v1.15a.32.32,0,0,0,.29.32c3.82.29,4.11.44,4.11,5.78v18c0,5.35-.3,5.5-4.31,5.78a.33.33,0,0,0-.29.32v1.15a.32.32,0,0,0,.32.32h13.3a.32.32,0,0,0,.32-.32V72.31a.33.33,0,0,0-.3-.32c-3.91-.28-4.2-.43-4.2-5.78V59.48h2.38A2.92,2.92,0,0,1,216,61.13L217.08,63c1.31,2.22,2.78,4.74,4,6.47,1.86,2.71,3.65,4.63,9.65,4.79h.71a.31.31,0,0,0,.31-.28l.11-1a.33.33,0,0,0-.24-.34A6.14,6.14,0,0,1,228,70.26a46.72,46.72,0,0,1-4.18-5.48c-1.37-2-3.21-5.08-4.2-6.73l-.06-.1c4.17-1.82,6.47-5,6.47-8.89a7.62,7.62,0,0,0-3.45-6.67c-1.72-1.16-4.43-1.75-8.07-1.75ZM210.74,44c0-1,.15-1,.23-1a9.24,9.24,0,0,1,2.7-.23c3.33,0,7.23,1.84,7.23,7a7.82,7.82,0,0,1-2.78,6.35c-1.3,1.07-2.86,1.28-4.8,1.28h-2.58Z"/><path class="cls-2" d="M109.45,20.76H78.89a.12.12,0,0,0-.12.15c.17,2,.33,3.53.35,3.85.14,1.45.07,2.62,1.63,3.08a80.31,80.31,0,0,1,23,10.81c.12.1.31,0,.34-.26,0-.07,0-.28,0-.28.69-8.19,3.38-11.63,6.51-15.56A1.21,1.21,0,0,0,109.45,20.76Z"/><path class="cls-2" d="M53.46,44.1c0,.17.19.19.23,0a19.86,19.86,0,0,0,.47-4.25,2.8,2.8,0,0,1,3.93-2.77c.09.05.21.06.2-.12-.91-3.08-7.36.14-10.42-3.07-.14-.13-.32-.18-.24.15a10.06,10.06,0,0,1,.2,4.22C47,42.73,52.28,39.89,53.46,44.1Z"/><path class="cls-2" d="M38.28,37.15c1.63.19,3.47-1.51,3.42-1.94S40,31.68,35.32,30.28c-3-.88-5.49,1.57-6.82,2.21s-2-.13-1.59,2.72c.66,4.71,2.83,4.33,3.59,4.43s-.36-2.56,1-3.3C33.13,35.44,37.31,37,38.28,37.15Z"/><path class="cls-2" d="M26.8,53.38c-.19-.66-.91-.72-2-.6a4.06,4.06,0,0,0-3.26,2.14c-.11.48-.38,2.2.26,2.9.23-1.58,1.95-2.94,7.08-2.55.27,0,.27-.14,0-.27A4.94,4.94,0,0,1,26.8,53.38Z"/><path class="cls-2" d="M31.91,53.09c.29.15-.4-1.63-.55-2.17-.23-.79-2.34-2.13-2-.87a.59.59,0,0,0,.13.22c-.65.14-4-.88-4.39-.89a11.52,11.52,0,0,0-1.82.7,6,6,0,0,1-1.2.23c-1.3.36-1,5-.7,3.48.55-3,1.23-2.1,2.37-2.42s1.47-.89,2.29-.87a11.18,11.18,0,0,1,4.18.6C30.72,51.34,31.49,52.87,31.91,53.09Z"/><path class="cls-2" d="M73.18,96.73c1.83-.84,3.72-2.41,3.72-4.62,0-2.93-2.49-4.41-5.09-4.41C69.45,87.7,66,89,66,93a5.54,5.54,0,0,0,3,5l.38.25c-2.21.9-3.77,2.16-3.77,4.76,0,3,3.06,4.46,5.72,4.46,3.09,0,5.94-2.13,5.94-5.47C77.23,99.37,75.37,97.67,73.18,96.73Zm-4.55-5a3,3,0,0,1,2.85-3c2,0,3.17,1.72,3.17,3.61a5,5,0,0,1-2.13,4C70.58,95.37,68.63,94.19,68.63,91.7Zm3,15A3.52,3.52,0,0,1,68,102.93a4.86,4.86,0,0,1,2.23-4.22c2,1.19,4.39,2.19,4.39,4.92A2.9,2.9,0,0,1,71.65,106.71Z"/><path class="cls-2" d="M80.87,105.91l-2,.22V107h9.64v-.84l-2-.22c-1.17-.15-1.39-.3-1.39-2V89.61a20,20,0,0,1-5.83,2.12v.84l1.49.07c1.27,0,1.49.33,1.49,2.19v9.1C82.26,105.61,82,105.76,80.87,105.91Z"/><path class="cls-2" d="M56.38,105.91l-2,.22V107H64v-.84l-2-.22c-1.16-.15-1.38-.3-1.38-2V89.61a20.12,20.12,0,0,1-5.84,2.12v.84l1.49.07c1.27,0,1.5.33,1.5,2.19v9.1C57.77,105.61,57.54,105.76,56.38,105.91Z"/><path class="cls-2" d="M95.83,89.69c-4.3,0-7.16,2.74-7.16,6.52a5.39,5.39,0,0,0,5.71,5.4,5.14,5.14,0,0,0,3.69-1.29.56.56,0,0,0,.14-.31.25.25,0,0,0-.22-.25c-.11,0-.25.14-.56.31a4.39,4.39,0,0,1-1.9.34c-1,0-3.72-1-3.72-5.29,0-2.38,1.34-4.17,3.35-4.17,2.16,0,4.26,2.18,4.26,7.13,0,6.61-7.77,14.59-10.68,16.35-.14.12-.34.28-.34.48a.3.3,0,0,0,.26.28.93.93,0,0,0,.5-.11c3.47-1.63,13.53-9.92,13.53-17.75C102.69,93.08,100.39,89.69,95.83,89.69Z"/><path class="cls-2" d="M103.47,62.38H69.88c-.09,0-.13,0-.11-.11.27-1.84.48-3.7.62-5.56a.08.08,0,0,1,.08-.07h33a.57.57,0,0,0,.59-.64c0-.45,0-8,0-8a1.49,1.49,0,0,0-.37-1C101.58,44.65,90.51,32.63,78,28.41c-1.42-.46-1.76-.8-1.82-1.65,0-1.64-.1-4.76-.14-7.1a.36.36,0,0,1,.07-.2.93.93,0,0,0-.05-1.62.34.34,0,0,1-.06-.17c0-.55,0-.91,0-1,0-.75.57-.89,1-1a.41.41,0,0,0,.35-.37c.45-1.95,2.7-12.2,2.68-12.28A.5.5,0,0,0,79.47,3a1.88,1.88,0,0,1-1.4,0,19.42,19.42,0,0,1-2.14-.82C75.17,1.69,75.1.34,75.1.34A.47.47,0,0,0,74.6,0h0a.47.47,0,0,0-.5.34S74,1.69,73.27,2.15A19.42,19.42,0,0,1,71.13,3a2,2,0,0,1-1.39,0,.51.51,0,0,0-.65.12c0,.08,2.25,10.43,2.69,12.3a.38.38,0,0,0,.3.35c.52.12,1.21.25,1.23,1,0,0,0,.42,0,1a.17.17,0,0,1-.1.18.91.91,0,0,0-.45.79.93.93,0,0,0,.43.77.37.37,0,0,1,.08.19c0,.31,0,1,0,1.13H56.1c-5.92-7.23-14.62-4.58-16.3-5.28a9,9,0,0,0-6.92-.63c-.13,0-.13.15,0,.17,5.18.92,8.4,2.55,10.49,4.58.06,0,.05.18-.08.15a23.83,23.83,0,0,0-5.14-1.12c-3-.23-8.92,1.34-10.4.92-.07,0-.17,0-.07.11.36.27,1.23.86,1.81,1.21S41,20.34,45.39,24c.06.06.25,0,.19-.21a19.81,19.81,0,0,0-2.31-6.5c-.13-.21,0-.22.12-.2,1.13.26,3,.51,3.64,2.56,1.27,3.13,2.66,2.43,6.06,3.63,4.47,1.57,6,7,6.34,8.87.09.66-.14.58-.44,0-2-3.64-8.35-.34-10.83-3.65-.22-.31-.49-.27-.34.17,2,5.55,11.82,3.23,11.44,9.6,1.57,3-3.15,10.88-6.71,11.1-.37,0-.79-.22-.33-1,.41-1,.76-1.9,1.05-2.82-.78-1.16-2.14.21-3.93-.35s-3.06-5.1-3-5.92c0-.42-.17-.22-.21-.16-.89,1.14-1.63,2.39-1.57,3,.11,1.06,1.6,5.25-5,5.05-2.42-.07-4.18,1.8-5,2.83a.22.22,0,0,0,0,.35,19.56,19.56,0,0,0,7.22,3.39c.09,0,.07.1,0,.13a22,22,0,0,0-4,1.23,2.47,2.47,0,0,0-1.22,1.3c-.3.64-.78,1.87-1.38,3.41a.29.29,0,0,1-.25.21c-4.51.37-7.41.47-9.25,1h0c-2.22.44-3.09,3.21-3.63,3-1.21-.52-1.87-2.2-1.32-4.86.26-1.25-.84-6.76-1-7.56-1.24-5.45-.15-6.89.07-7.33.59,1.1,1.89,2.15,2.28,3.11.4.64.76.69,1.08.63.13,0,.09,0,.13-.1.53-1.1,3.55-1.4,4.73-2.15.64-.59-2.1-1.36-4.63-1.82-2-.4-2.84.08-3.49-.36a1.34,1.34,0,0,1-.46-.63,10.22,10.22,0,0,1,.88-2c.93-1.88,1.38-3.15,1.91-3.92a13,13,0,0,1,1.53-1.55c.43-.6-1.4-1.27-2-1.11s-2.84.8-3.47,1.65c0,0-.09,0-.1,0a5.73,5.73,0,0,1-.12-.92,9,9,0,0,1,1.05-2.61,6.63,6.63,0,0,0,.47-1.33c.63-2.37,1.36-6.61,5-9.14h0a.49.49,0,0,0,.26-.4,5.26,5.26,0,0,1,1.31-2.55c1-.87.81-1.61,2.36-2.59,0,0,0-.1,0-.11-1.54-.09-1.78.59-3.32,1.53a13.78,13.78,0,0,0-2.76,2.63.7.7,0,0,1-.48.2H1.34A1.21,1.21,0,0,0,.13,22.55C3.59,26.89,6.51,30.6,6.8,40.8c0,0,.69,46.16.72,46.8,1.05,26.65,32.76,40.71,47.23,47.6a1.7,1.7,0,0,0,.64.2h0a1.7,1.7,0,0,0,.64-.2c3.5-1.66,8-3.75,12.83-6.33.57-.3.52-.67.17-.84-26.9-13.18-21.82-35.19-16.78-43.76.22-.36.09-.73-.6-.72-5,0-9.13.23-13.11-.83a.93.93,0,0,1-.84-.8c-.09-.4-.16-.63-.27-1s0-.5.31-.52c6.17-.43,14.4-3,17-3.56a1,1,0,0,0,.72-.63c11-25.33,8.88-35.57,7.88-40.66.63-2.05-.23-4.21-2.24-7.44h2a1.48,1.48,0,0,1,1.27,1c7.23,17.72,1,34.74-3.88,50.52h0L60,81.31a.44.44,0,0,0,.45.6h43.05a.63.63,0,0,0,.63-.63V75.65a.64.64,0,0,0-.63-.64H67.12c-.06,0-.09,0-.06-.09q1-3.54,1.73-7.16a.1.1,0,0,1,.11-.08h34.57a.64.64,0,0,0,.63-.64V63A.64.64,0,0,0,103.47,62.38Zm-92.68,19c.06-.07,2.19-2.39,2.34-2.52a1.79,1.79,0,0,1,.92-.59c.56-.15,6.59-2,6.59-2,.24-.06.45,0,.49.27.16,1.23.62,2.13.24,2.94s-7,1.46-10.41,2.27C10.71,81.8,10.51,81.69,10.79,81.34Zm14.46,27.34c-1.57.83-3.16.41-3.52-.92s.61-3.09,2.19-3.93,3.16-.42,3.53.92S26.83,107.85,25.25,108.68Zm1.09-8.37c-1.62.83-3.23.44-3.59-.87s.66-3,2.28-3.88,3.22-.44,3.58.87S28,99.47,26.34,100.31Zm.84-9c-1.62.84-3.23.44-3.59-.86a2.21,2.21,0,0,1,0-1.14.19.19,0,0,1,.19-.18c2.12-.29,4.12-.57,5.5-.74.12,0,.18.08.15.21A4.37,4.37,0,0,1,27.18,91.34Zm31.27-34.5c-.7,2.86-1.56,7.57-3,10.91-.43,1-3.47,3.47-4.56,4.31s-14.15,5.31-17,6.55c-.42.18-.42.47.12,1.19s.28,4.33-3.41,5c-3,.54-4.55-.74-5.17-2.43,0-.1-.33-.28-.55.14a13.41,13.41,0,0,0-.72,1.69c-.1.28-.37,1.12-.72,1.19-2,.38-8.57,1.19-11.35,1.52-.77.09-.5-.66-.06-.84,3.79-1.5,10.6-4.17,11.24-4.35,1.44-.4,2.16-1.42,1.44-2.68-.17-.26-5.69-11.71-6.26-13.49-.31-1,.54-.65.54-.65l4.07,1.92a.62.62,0,0,1,.42.54c1.22,4.45,3,9.91,4.83,11.45.05,0,.22.17.35,0C30,77.38,36,64.63,38.26,60.09a3.66,3.66,0,0,1,1.9-1.92c3.12-.89,11.09-1,17.59-2.07A.58.58,0,0,1,58.45,56.84Zm42.31-8.77a.58.58,0,0,1,.58.58v3.49a.57.57,0,0,1-.58.57H70.64s-.07,0-.07-.08q0-2.22-.09-4.47c0-.12.07-.09.11-.09Zm-6.13-6v2.54a.53.53,0,0,1-.52.52H70.33s-.09,0-.1-.08c-.12-1.14-.27-2.27-.46-3.41,0-.1,0-.09.08-.09H94.11A.53.53,0,0,1,94.63,42ZM75.47,5.17c.47-.22,2.45.94,2.37,1.29-.11,1-.94,8.33-2.18,8.18C74.7,14.22,75.09,7.16,75.47,5.17ZM71.36,6.46c-.08-.35,1.9-1.51,2.37-1.29.38,2,.77,9.05-.19,9.47C72.3,14.79,71.47,7.51,71.36,6.46Zm-4,25.28s-.07,0-.1-.07c-.24-.66-.48-1.32-.74-2,0-.07,0-.09.06-.09h10a.35.35,0,0,1,.35.35v1.43a.35.35,0,0,1-.35.35Zm1,3.52c-.22-.76-.46-1.53-.71-2.3,0-.07,0-.06,0-.07H83.24a.41.41,0,0,1,.41.41v1.62a.42.42,0,0,1-.41.41H68.46S68.38,35.34,68.36,35.26Zm1.06,4.42c-.19-.94-.4-1.88-.64-2.83,0-.07,0-.07.07-.07H88.37a.47.47,0,0,1,.46.47v2a.47.47,0,0,1-.46.46H69.5S69.44,39.76,69.42,39.68Z"/><path class="cls-1" d="M313.12,89.14a2.33,2.33,0,1,1-2.33-2.27A2.28,2.28,0,0,1,313.12,89.14Zm-4.08,0A1.75,1.75,0,0,0,310.81,91a1.73,1.73,0,0,0,1.72-1.79,1.75,1.75,0,1,0-3.49,0Zm1.39,1.19h-.52V88.06a4.58,4.58,0,0,1,.87-.07,1.39,1.39,0,0,1,.79.17.65.65,0,0,1,.22.5.58.58,0,0,1-.47.52v0a.68.68,0,0,1,.41.55,1.57,1.57,0,0,0,.17.57h-.57a1.91,1.91,0,0,1-.18-.55c0-.25-.18-.36-.47-.36h-.25Zm0-1.28h.25c.29,0,.52-.1.52-.34s-.15-.34-.48-.34a.93.93,0,0,0-.29,0Z"/></g></g></svg>