<svg width="500" height="172" viewBox="0 0 500 172" fill="none" xmlns="http://www.w3.org/2000/svg">
<path fill-rule="evenodd" clip-rule="evenodd" d="M35.6778 49.3229C34.8752 51.2495 33.8294 53.0298 32.3023 54.4138C25.5169 60.58 12.4295 58.7249 1.20834 58.6275L1.06532 45.0507H2.67014C2.67014 53.1371 17.2182 59.0369 25.2265 51.4022C30.9151 45.9799 27.1861 38.7839 20.2526 34.7328L8.67935 27.9687C5.62551 26.2306 3.41634 24.2223 2.05184 21.9437C0.689944 19.6824 -0.0195658 17.0883 0.00187908 14.4487C-0.0320734 12.3845 0.394461 10.3386 1.25046 8.45996C4.42441 1.70903 11.4061 0.0659033 18.6607 9.62131e-05H19.5995C24.3669 0.0425052 29.1834 0.695307 33.0534 0.971404V12.6865H31.4448C31.2368 6.10582 23.0987 2.80376 16.754 4.18454C10.7144 5.50068 7.04675 11.946 10.6887 17.3811C11.5983 18.7358 13.0981 20.0386 15.1881 21.2894C17.4915 22.6475 19.7559 23.9654 21.9814 25.2431C24.2043 26.5199 25.9305 27.5378 27.16 28.2968C30.2603 30.1649 33.2938 32.6957 35.0385 35.9542C36.1554 37.9869 36.7937 40.2478 36.9045 42.5646C37.0153 44.8814 36.5957 47.1929 35.6778 49.3229Z" fill="#006DB4"/>
<path fill-rule="evenodd" clip-rule="evenodd" d="M98.392 57.019H79.5914V55.7974C80.1977 55.6844 80.7903 55.5068 81.3588 55.2677C81.9623 55.0116 82.509 54.6384 82.9674 54.1697C83.4851 53.6193 83.8813 52.9663 84.1303 52.2529C84.4558 51.2688 84.6054 50.2351 84.5723 49.1991V31.6851C84.5723 30.8697 84.7314 30.259 85.0563 29.8527C85.1815 29.6685 85.3487 29.5168 85.5442 29.41C85.7396 29.3032 85.9577 29.2444 86.1803 29.2385V28.8326H58.0552V29.2385C58.2822 29.2469 58.5036 29.3109 58.7001 29.4247C58.8966 29.5386 59.0622 29.6989 59.1824 29.8916C59.5297 30.4228 59.6972 31.0515 59.66 31.6851V49.2804C59.6315 50.2899 59.7822 51.2964 60.1052 52.2532C60.3541 52.9674 60.7516 53.6207 61.2716 54.17C61.7281 54.6392 62.2737 55.0125 62.8764 55.268C63.4462 55.5067 64.0397 55.6843 64.647 55.7977V57.0193H45.8408V55.7977C46.4482 55.6847 47.0418 55.5071 47.6115 55.268C48.2154 55.0127 48.7623 54.6394 49.2201 54.17C49.7378 53.619 50.1351 52.9662 50.3865 52.2532C50.7104 51.2687 50.8599 50.2353 50.8284 49.1994V7.81641C50.854 6.79362 50.7045 5.77399 50.3865 4.80157C50.1412 4.07413 49.7435 3.40736 49.2201 2.84578C48.7632 2.37536 48.2161 2.00193 47.6115 1.74783C47.0419 1.50765 46.4483 1.32901 45.8408 1.21494V0H64.647V1.21494C64.0396 1.32946 63.4461 1.50808 62.8764 1.74783C62.273 2.00207 61.7272 2.37551 61.2716 2.84578C60.7459 3.40569 60.348 4.07296 60.1052 4.80157C59.7847 5.77347 59.6345 6.7934 59.6612 7.81641V21.5002C59.6612 23.1312 59.1263 23.9467 58.0564 23.9467V24.3527H86.18V23.9467C85.9574 23.9409 85.7393 23.8821 85.5439 23.7753C85.3484 23.6685 85.1812 23.5167 85.056 23.3326C84.7311 22.9298 84.572 22.3156 84.572 21.5002V7.81641C84.5992 6.79353 84.4496 5.77362 84.13 4.80157C83.8872 4.07379 83.4906 3.40676 82.9671 2.84578C82.5096 2.37606 81.9627 2.00273 81.3585 1.74783C80.7901 1.50767 80.1976 1.32903 79.5911 1.21494V0H98.3917V1.21494C97.7855 1.32993 97.1931 1.50855 96.6243 1.74783C96.0197 2.00191 95.4726 2.37534 95.0157 2.84578C94.4922 3.40675 94.0955 4.07377 93.8525 4.80157C93.5337 5.77377 93.385 6.79366 93.4129 7.81641V49.2804C93.3835 50.2897 93.5332 51.2961 93.8549 52.2532C94.1039 52.9666 94.5002 53.6197 95.018 54.17C95.4758 54.6394 96.0227 55.0127 96.6266 55.268C97.1955 55.5062 97.7879 55.6838 98.3941 55.7977L98.392 57.019Z" fill="#006DB4"/>
<path fill-rule="evenodd" clip-rule="evenodd" d="M126.556 57.019H107.754V55.7974C108.361 55.6839 108.953 55.5064 109.522 55.2677C110.125 55.0116 110.672 54.6384 111.13 54.1697C111.648 53.6194 112.044 52.9663 112.294 52.2529C112.62 51.269 112.771 50.2353 112.739 49.1991V7.81641C112.765 6.79333 112.614 5.7734 112.294 4.80157C112.051 4.07377 111.654 3.40674 111.13 2.84578C110.673 2.37606 110.126 2.00273 109.522 1.74783C108.953 1.5081 108.361 1.32947 107.754 1.21494V0H126.555V1.21494C125.949 1.32993 125.356 1.50855 124.788 1.74783C124.184 2.00207 123.638 2.37552 123.183 2.84578C122.657 3.4057 122.259 4.07297 122.016 4.80157C121.697 5.77363 121.547 6.79353 121.574 7.81641V49.2804C121.545 50.2897 121.695 51.2961 122.016 52.2532C122.265 52.9674 122.663 53.6207 123.183 54.1701C123.639 54.6392 124.185 55.0125 124.788 55.268C125.356 55.5062 125.949 55.6838 126.555 55.7977L126.556 57.019Z" fill="#006DB4"/>
<path fill-rule="evenodd" clip-rule="evenodd" d="M188.789 1.21845C186.752 1.7609 185.267 2.56111 184.332 3.61909C183.331 4.78506 182.554 6.1253 182.038 7.57279L163.959 57.0229H158.897L140.096 6.67635C139.508 5.10068 138.718 3.90621 137.724 3.09293C136.598 2.20839 135.299 1.56983 133.91 1.21845V0H151.985V1.21845C150.806 1.27373 149.909 1.65044 149.295 2.35911C148.68 3.06778 148.664 4.15257 149.252 5.61759L164.203 46.4294L164.443 45.6172C164.237 45.0859 164.155 44.5148 164.203 43.9471C164.285 43.3174 164.446 42.7007 164.683 42.1116L177.861 5.86093C178.397 4.50618 178.384 3.46116 177.822 2.72588C177.26 1.99059 176.336 1.48811 175.051 1.21845V0H188.79L188.789 1.21845Z" fill="#006DB4"/>
<path fill-rule="evenodd" clip-rule="evenodd" d="M305.42 33.1507L305.258 32.7447C304.746 32.6631 304.255 32.4831 303.812 32.2148C303.438 31.9679 303.12 31.4935 302.85 30.7886L294.653 9.7722L294.412 10.3408C294.893 11.3219 294.866 12.4634 294.331 13.7651L287.662 30.7872C287.519 31.2559 287.259 31.6807 286.907 32.0226C286.556 32.3644 286.124 32.6121 285.651 32.743L285.492 33.1489L305.42 33.1507ZM374.739 28.5082C374.775 25.2209 374.175 21.9578 372.972 18.8983C371.855 16.06 370.189 13.47 368.069 11.2767C365.949 9.11194 363.405 7.40768 360.597 6.27039C357.587 5.05043 354.364 4.44079 351.117 4.47692H344.608V4.88288C344.83 4.88876 345.048 4.94753 345.244 5.05433C345.439 5.16113 345.606 5.31289 345.732 5.49708C346.056 5.90304 346.216 6.51402 346.216 7.32945V49.6867C346.216 50.5021 346.056 51.1128 345.732 51.519C345.606 51.7028 345.439 51.854 345.243 51.9602C345.048 52.0664 344.83 52.1245 344.608 52.1297V52.5392H351.118C354.366 52.5737 357.588 51.9641 360.598 50.7457C363.408 49.6096 365.952 47.904 368.07 45.7362C370.189 43.5447 371.855 40.957 372.973 38.121C374.175 35.0603 374.775 31.7964 374.739 28.5082ZM422.886 33.1507L422.727 32.7447C422.215 32.6642 421.724 32.4842 421.281 32.2148C420.904 31.9711 420.583 31.4935 420.316 30.7886L412.119 9.7725L411.879 10.3411C412.36 11.3222 412.332 12.4637 411.797 13.7654L405.129 30.7875C404.985 31.2555 404.725 31.6798 404.375 32.0216C404.024 32.3633 403.593 32.6114 403.121 32.7433L402.962 33.1492L422.886 33.1507ZM267.599 0H253.134V1.21845C255.065 1.54329 256.391 2.24933 257.114 3.33656C257.852 4.47597 258.23 5.81093 258.199 7.168V35.351C258.179 36.1055 258.259 36.8595 258.439 37.5925C258.61 38.1814 258.911 38.7244 259.32 39.1812V40.0748L227.183 0H215.049V1.21845C216.052 1.40295 216.991 1.83765 217.781 2.48224C218.644 3.23172 219.401 4.09387 220.033 5.0455V49.8511C220.063 51.157 219.713 52.4434 219.026 53.5547C218.357 54.617 217.031 55.3641 215.049 55.7962V57.0211H229.512V55.7962C227.586 55.4714 226.259 54.7653 225.533 53.6781C224.796 52.5397 224.419 51.2064 224.451 49.8511V14.0087C224.479 13.1731 224.398 12.3374 224.21 11.5227C224.055 10.968 223.781 10.4536 223.408 10.0152V9.19983L262.617 58.2401V7.16683C262.587 5.8603 262.936 4.57305 263.621 3.45999C264.29 2.40083 265.616 1.65355 267.598 1.21816L267.599 0ZM300.038 0H287.984V1.21845C289.271 1.43605 290.259 1.8423 290.957 2.43983C291.655 3.03736 292.295 4.0154 292.887 5.37366L275.45 49.8511C274.906 51.3012 274.041 52.6095 272.919 53.6781C271.755 54.7426 270.325 55.4742 268.78 55.7962V57.0211H282.519V55.7962C281.727 55.6382 280.975 55.3197 280.31 54.8603C279.979 54.629 279.712 54.3162 279.536 53.9521C279.36 53.5879 279.281 53.1847 279.306 52.7811C279.306 52.5213 279.334 52.2622 279.388 52.0081C279.447 51.7442 279.527 51.4855 279.628 51.2348L283.806 40.5626C284.235 39.5292 284.048 38.8231 283.244 38.4445L283.322 38.0385H307.431L307.587 38.5258C306.625 38.9092 306.356 39.5849 306.784 40.5629L311.125 51.4787C311.361 51.9908 311.497 52.5431 311.527 53.1063C311.527 54.1397 311.192 54.8198 310.52 55.1466C309.823 55.4791 309.077 55.6985 308.311 55.7965V57.0214H326.394V55.7965C325.026 55.4083 323.753 54.7426 322.655 53.8407C321.631 52.8976 320.846 51.7247 320.364 50.4187L300.038 0ZM355.797 0H332.396V1.21845C332.997 1.33075 333.588 1.49375 334.163 1.70572C334.771 1.93603 335.321 2.29889 335.771 2.76799C336.296 3.32715 336.692 3.9933 336.934 4.72056C337.254 5.69266 337.403 6.71253 337.376 7.7354V49.1994C337.409 50.2365 337.26 51.2713 336.934 52.2567C336.685 52.9687 336.288 53.6205 335.771 54.1701C335.315 54.6412 334.768 55.0147 334.163 55.268C333.593 55.5052 333.001 55.6827 332.396 55.7977V57.0226H355.377C359.296 57.0485 363.184 56.3148 366.825 54.862C370.282 53.4911 373.444 51.472 376.143 48.9137C378.814 46.3628 380.947 43.3029 382.416 39.9145C383.926 36.3011 384.703 32.424 384.703 28.5079C384.703 24.5918 383.926 20.7147 382.416 17.1014C380.947 13.7124 378.814 10.6524 376.143 8.10217C373.443 5.54585 370.281 3.52805 366.825 2.15701C363.317 0.750598 359.576 0.0187915 355.797 0ZM417.507 0H405.45V1.21845C406.737 1.43605 407.728 1.84318 408.423 2.43983C409.121 3.03765 409.764 4.01559 410.353 5.37366L392.916 49.8511C392.373 51.301 391.509 52.6094 390.389 53.6781C389.222 54.7439 387.79 55.4756 386.243 55.7962V57.0211H399.989V55.7962C399.196 55.6373 398.443 55.3189 397.777 54.8603C397.446 54.6285 397.18 54.3156 397.004 53.9516C396.828 53.5876 396.749 53.1846 396.773 52.7811C396.773 52.5213 396.801 52.2622 396.855 52.0081C396.913 51.7437 396.995 51.485 397.098 51.2348L401.273 40.5626C401.702 39.5292 401.514 38.8231 400.711 38.4445L400.789 38.0385H424.898L425.057 38.5258C424.095 38.9092 423.822 39.5849 424.254 40.5629L428.591 51.4787C428.828 51.9908 428.964 52.5431 428.994 53.1063C428.994 54.1393 428.656 54.8185 427.99 55.1466C427.292 55.4772 426.547 55.6965 425.781 55.7965V57.0214H443.861V55.7965C442.494 55.409 441.222 54.7432 440.125 53.8407C439.098 52.9 438.313 51.7264 437.834 50.4187L417.507 0ZM477.918 0H449.861V1.21845C450.408 1.28708 450.946 1.41004 451.469 1.58551C452.089 1.79422 452.653 2.14335 453.116 2.60567C453.675 3.16949 454.1 3.85102 454.361 4.60036C454.712 5.63528 454.875 6.72503 454.841 7.81759V49.1994C454.874 50.2362 454.725 51.2707 454.403 52.2567C454.153 52.9695 453.755 53.6215 453.236 54.1701C452.779 54.6397 452.232 55.0131 451.628 55.268C451.059 55.5052 450.466 55.6827 449.861 55.7977V57.0226H468.664V55.7977C466.683 55.4728 465.357 54.6856 464.687 53.4359C464.001 52.1305 463.655 50.6737 463.68 49.1994V33.6397C463.68 32.8243 463.519 32.2124 463.199 31.8041C463.072 31.6208 462.904 31.4699 462.708 31.3638C462.513 31.2577 462.294 31.1993 462.072 31.1934V30.7872H469.225C470.612 30.7826 471.997 30.9055 473.361 31.1542C474.66 31.3917 475.902 31.8758 477.019 32.5803C478.229 33.3667 479.279 34.376 480.112 35.5545C481.197 37.12 482.05 38.8348 482.642 40.6454C483.179 42.221 483.782 44.0133 484.452 46.0223C485.122 48.0312 485.805 50.0411 486.499 52.0519C487.893 56.0674 490.733 58.0758 495.018 58.0769C496.738 58.1236 498.446 57.7623 500 57.0226V55.7977C499.566 55.876 499.12 55.8544 498.695 55.7345C498.271 55.6146 497.879 55.3995 497.551 55.1057C496.777 54.4818 496.117 53.462 495.582 52.0519C495.42 51.5094 495.156 50.72 494.776 49.6867C494.406 48.6569 494.013 47.5294 493.616 46.308C493.214 45.0831 492.781 43.8486 492.33 42.6012C491.872 41.3533 491.483 40.2389 491.163 39.2582C490.305 36.7598 489.153 34.7921 487.706 33.3551C486.307 31.9443 484.603 30.872 482.726 30.2201C484.505 29.7725 486.192 29.0135 487.706 27.9782C490.611 25.9517 492.718 22.9758 493.664 19.5631C494.61 16.1503 494.337 12.5144 492.891 9.28142C492.035 7.4193 490.819 5.74448 489.314 4.35292C487.784 2.9499 485.995 1.85728 484.048 1.13568C482.087 0.401302 480.012 0.0169082 477.918 0ZM484.253 15.555C484.275 13.985 483.96 12.4285 483.329 10.9907C482.726 9.65639 481.849 8.46416 480.755 7.49177C479.63 6.4982 478.319 5.73647 476.899 5.25023C475.36 4.72351 473.743 4.46202 472.117 4.47692H462.154V4.88288C462.372 4.88684 462.585 4.94507 462.775 5.05231C462.965 5.15954 463.126 5.31239 463.242 5.49708C463.534 5.90323 463.681 6.51402 463.681 7.32945V23.8657C463.681 24.678 463.52 25.2888 463.2 25.6981C463.073 25.8814 462.905 26.0323 462.709 26.1384C462.513 26.2445 462.295 26.3029 462.073 26.3088V26.7147H472.118C473.714 26.7249 475.301 26.478 476.819 25.9836C478.235 25.5271 479.546 24.7926 480.675 23.823C481.786 22.8559 482.677 21.6617 483.287 20.3209C483.954 18.8223 484.284 17.1952 484.253 15.555Z" fill="#006DB4"/>
<path fill-rule="evenodd" clip-rule="evenodd" d="M196.947 164.142C196.947 160.198 193.919 157.193 189.539 157.193H184.342V171.133H189.54C193.919 171.133 196.947 168.086 196.947 164.142ZM194.377 164.184C194.377 166.929 192.467 168.898 189.539 168.898H186.79V159.425H189.539C192.467 159.425 194.377 161.436 194.377 164.184ZM212.54 157.194H202.207V171.134H212.641V168.941H204.657V165.197H211.645V163.007H204.656V159.381H212.541L212.54 157.194ZM217.838 171.134H227.617V168.898H220.289V157.193H217.84L217.838 171.134ZM241.558 165.257V171.134H244.005V157.193H241.558V162.985H234.905V157.193H232.456V171.133H234.905V165.256L241.558 165.257ZM250.018 171.134H252.471V157.193H250.018V171.134ZM278.559 166.83L271.093 157.194H268.819V171.134H271.229V161.215L278.916 171.133H280.966V157.193H278.559V166.83ZM298.967 168.899L297.398 167.311C296.203 168.425 295.108 169.12 293.396 169.12C290.728 169.12 288.792 166.892 288.792 164.143C288.792 161.395 290.728 159.205 293.396 159.205C294.988 159.205 296.183 159.903 297.298 160.936L298.87 159.123C297.538 157.85 295.982 156.953 293.415 156.953C289.192 156.953 286.226 160.199 286.226 164.185C286.226 168.204 289.254 171.371 293.315 171.371C295.924 171.37 297.516 170.416 298.968 168.898L298.967 168.899ZM315.66 171.134L311.895 165.854C313.847 165.314 315.218 163.923 315.218 161.613C315.218 158.884 313.249 157.191 310.043 157.191H303.828V171.132H306.278V166.27H309.349L312.773 171.133L315.66 171.134ZM312.733 161.752C312.733 163.185 311.615 164.104 309.864 164.104H306.278V159.425H309.846C311.654 159.425 312.733 160.217 312.733 161.751L312.733 161.752Z" fill="#58595B"/>
<path fill-rule="evenodd" clip-rule="evenodd" d="M104.578 125.746H21.6205C33.1309 124.944 71.1481 123.881 103.977 124.199C104.175 124.603 104.377 125.343 104.578 125.746Z" fill="#006DB4"/>
<path fill-rule="evenodd" clip-rule="evenodd" d="M104.578 126.477H21.6205C33.1309 127.279 71.1481 128.341 103.977 128.023C104.175 127.621 104.377 126.879 104.578 126.477Z" fill="#006DB4"/>
<path fill-rule="evenodd" clip-rule="evenodd" d="M104.206 123.58L105.622 126.095L104.168 128.618L107.445 126L104.206 123.58Z" fill="#006DB4"/>
<path fill-rule="evenodd" clip-rule="evenodd" d="M135.454 115.036H132.975V127.814C132.975 132.619 130.399 135.065 126.351 135.065C122.144 135.065 119.636 132.398 119.636 127.658V115.036H117.154V127.814C117.154 134.029 120.857 137.359 126.289 137.359C131.783 137.359 135.454 134.029 135.454 127.625V115.036ZM166.132 132.651L152.289 115.036H149.966V137.011H152.383V118.994L166.57 137.011H168.549V115.036H166.132V132.651ZM183.622 137.011H186.104V115.036H183.622V137.011ZM209.876 133.967L202.061 115.036H199.299L208.746 137.167H210.946L220.393 115.036H217.722L209.876 133.967ZM249.252 115.036H233.366V137.011H249.408V134.753H235.844V127.061H247.839V124.8H235.844V117.297H249.252V115.036ZM281.217 137.011L274.466 128.035C277.917 127.404 280.43 125.27 280.43 121.6C280.43 117.646 277.321 115.038 272.487 115.038H263.04V137.012H265.519V128.473H271.799L278.17 137.011H281.217ZM277.916 121.693C277.916 124.549 275.564 126.244 272.266 126.244H265.519V117.33H272.299C275.847 117.33 277.916 118.964 277.916 121.693ZM296.294 120.53C296.294 118.522 298.113 116.949 300.969 116.949C303.23 116.949 305.268 117.674 307.311 119.338L308.753 117.424C306.525 115.634 304.234 114.724 301.034 114.724C296.856 114.724 293.812 117.232 293.812 120.754C293.812 124.393 296.135 126.027 301.19 127.125C305.803 128.096 306.902 129.26 306.902 131.329C306.902 133.557 304.955 135.097 302.006 135.097C298.961 135.097 296.762 134.064 294.472 131.988L292.932 133.811C295.57 136.166 298.425 137.326 301.911 137.326C306.274 137.326 309.412 134.876 309.412 131.079C309.412 127.69 307.154 125.9 302.259 124.834C297.425 123.798 296.294 122.635 296.294 120.53ZM323.33 137.011H325.809V115.036H323.33V137.011ZM349.204 117.33H356.578V115.036H339.315V117.33H346.69V137.011H349.206L349.204 117.33ZM379.251 128.285L388.387 115.035H385.499L378.026 126.026L370.623 115.035H367.608L376.74 128.317V137.01H379.252L379.251 128.285Z" fill="#006DB4"/>
<path fill-rule="evenodd" clip-rule="evenodd" d="M395.421 125.746H478.382C466.872 124.944 428.858 123.881 396.029 124.199C395.824 124.603 395.626 125.343 395.421 125.746Z" fill="#006DB4"/>
<path fill-rule="evenodd" clip-rule="evenodd" d="M395.421 126.477H478.382C466.872 127.279 428.858 128.341 396.029 128.023C395.824 127.621 395.626 126.879 395.421 126.477Z" fill="#006DB4"/>
<path fill-rule="evenodd" clip-rule="evenodd" d="M395.795 123.58L394.379 126.095L395.836 128.618L392.557 126L395.795 123.58Z" fill="#006DB4"/>
<path fill-rule="evenodd" clip-rule="evenodd" d="M22.8094 100.882H24.168V88.8519H22.81L22.8094 100.882ZM38.2995 98.4942L30.7136 88.8519H29.4401V100.882H30.7656V91.0188L38.54 100.882H39.625V88.8519H38.2995V98.4942ZM45.827 91.8603C45.827 90.7588 46.8243 89.9007 48.3903 89.9007C49.6675 89.9028 50.9009 90.3666 51.8631 91.2066L52.6557 90.1604C51.4755 89.1644 49.9696 88.6382 48.4259 88.6823C46.1356 88.6823 44.469 90.0569 44.469 91.9796C44.469 93.9743 45.7425 94.871 48.5105 95.4689C51.038 96.0018 51.6423 96.6388 51.6423 97.7724C51.6423 98.9938 50.5733 99.8352 48.9556 99.8352C47.2885 99.8352 46.087 99.2667 44.8296 98.133L43.985 99.1304C45.3132 100.385 47.0767 101.074 48.9035 101.054C51.298 101.054 53.0199 99.7118 53.0199 97.6317C53.0199 95.7765 51.7789 94.7947 49.0954 94.2141C46.4441 93.647 45.827 93.0135 45.827 91.8603ZM61.8336 90.1054H65.8783V88.8513H56.4146V90.1054H60.4561V100.882H61.8336V90.1054ZM70.2862 100.882H71.6474V88.8519H70.2862V100.882ZM81.4781 90.1054H85.5195V88.8513H76.0567V90.1054H80.1046V100.882H81.4792L81.4781 90.1054ZM99.6516 88.8513H98.2905V95.8459C98.2905 98.4781 96.8804 99.8159 94.6617 99.8159C92.3552 99.8159 90.9809 98.3536 90.9809 95.7613V88.8519H89.6241V95.8465C89.6241 99.2479 91.6512 101.07 94.6304 101.07C97.6429 101.07 99.6531 99.248 99.6531 95.7456L99.6516 88.8513ZM109.174 90.1054H113.215V88.8513H103.756V90.1054H107.797V100.882H109.175L109.174 90.1054ZM117.626 100.882H118.989V88.8519H117.627L117.626 100.882ZM136.011 94.8491C136.011 91.5193 133.551 88.6486 129.887 88.6486C126.222 88.6486 123.727 91.5529 123.727 94.8863C123.727 98.2196 126.187 101.091 129.851 101.091C133.515 101.091 136.011 98.1854 136.011 94.8491ZM134.601 94.8848C134.601 97.6341 132.639 99.8358 129.887 99.8358C127.135 99.8358 125.137 97.6007 125.137 94.8488C125.137 92.1036 127.099 89.901 129.851 89.901C132.603 89.901 134.6 92.1364 134.6 94.8848H134.601ZM149.49 98.4942L141.904 88.8519H140.63V100.882H141.956V91.0188L149.728 100.882H150.81V88.8519H149.488L149.49 98.4942ZM177.542 94.8491C177.542 91.5193 175.08 88.6486 171.419 88.6486C167.757 88.6486 165.259 91.5529 165.259 94.8863C165.259 98.2196 167.718 101.091 171.379 101.091C175.047 101.09 177.542 98.1854 177.542 94.8491ZM176.129 94.8848C176.129 97.6341 174.17 99.8358 171.419 99.8358C168.667 99.8358 166.669 97.6007 166.669 94.8488C166.669 92.1036 168.631 89.901 171.379 89.901C174.134 89.9013 176.129 92.1364 176.129 94.8848ZM190.813 88.8519H182.159V100.882H183.516V95.6417H190.039V94.404H183.516V90.1046H190.813L190.813 88.8519ZM213.428 88.8519H204.721V100.882H213.513V99.6442H206.079V95.4326H212.651V94.1948H206.079V90.0885H213.429L213.428 88.8519ZM228.158 91.1391V100.882H229.519V88.8519H228.141L223.754 95.4177L219.366 88.8519H217.992V100.882H219.317V91.1584L223.704 97.5811H223.776L228.158 91.1391ZM234.792 100.882H236.15V88.8519H234.792V100.882ZM250.282 98.4945L242.696 88.8522H241.423V100.882H242.748V91.0188L250.526 100.882H251.608V88.8519H250.281L250.282 98.4945ZM265.464 88.8522H256.76V100.882H265.551V99.6445H258.118V95.4329H264.69V94.1951H258.118V90.0888H265.464L265.464 88.8522ZM278.891 98.4945L271.302 88.8522H270.032V100.882H271.357V91.0188L279.128 100.882H280.217V88.8519H278.891V98.4945ZM295.691 98.9754L294.794 98.0979C293.641 99.1994 292.562 99.8361 290.908 99.8361C288.257 99.8361 286.243 97.6496 286.243 94.8491C286.243 92.0487 288.241 89.9013 290.908 89.9013C292.542 89.9013 293.68 90.5901 294.69 91.5517L295.623 90.5544C294.417 89.4208 293.111 88.6474 290.925 88.6474C287.381 88.6474 284.833 91.4479 284.833 94.8851C284.833 98.3547 287.4 101.09 290.876 101.09C293.059 101.09 294.433 100.249 295.691 98.9754ZM308.514 88.8522H299.81V100.882H308.601V99.6445H301.168V95.4329H307.74V94.1951H301.168V90.0888H308.513L308.514 88.8522ZM333.981 94.8479C333.981 91.4464 331.369 88.8522 327.584 88.8522H323.402V100.882H327.584C331.368 100.882 333.98 98.2506 333.98 94.8491L333.981 94.8479ZM332.574 94.8836C332.574 97.5639 330.628 99.6267 327.584 99.6267H324.764V90.1057H327.584C330.627 90.1057 332.573 92.2013 332.573 94.8848L332.574 94.8836ZM347.307 88.8507H338.6V100.881H347.392V99.6431H339.963V95.4314H346.532V94.1937H339.963V90.0873H347.308L347.307 88.8507ZM360.578 88.8507H351.871V100.881H360.661V99.6431H353.233V95.4314H359.805V94.1937H353.233V90.0873H360.578V88.8507ZM375.311 91.1379V100.881H376.673V88.8519H375.295L370.906 95.4177L366.519 88.8519H365.144V100.882H366.466V91.1584L370.853 97.5811H370.925L375.311 91.1379ZM390.529 88.8507H381.822V100.881H390.613V99.6431H383.184V95.4314H389.753V94.1937H383.182V90.0873H390.528L390.529 88.8507ZM405.679 94.8465C405.679 91.445 403.06 88.8507 399.279 88.8507H395.094V100.881H399.279C403.059 100.882 405.677 98.2506 405.677 94.8491L405.679 94.8465ZM404.266 94.8822C404.266 97.5624 402.319 99.6252 399.279 99.6252H396.455V90.1057H399.279C402.321 90.1057 404.264 92.2013 404.264 94.8848L404.266 94.8822ZM422.507 90.1031H426.552V88.849H417.085V90.1031H421.133V100.879H422.508L422.507 90.1031ZM441.769 94.8462C441.769 91.5163 439.307 88.6457 435.642 88.6457C431.978 88.6457 429.481 91.5514 429.481 94.8848C429.481 98.2181 431.944 101.09 435.608 101.09C439.273 101.09 441.768 98.1854 441.768 94.8491L441.769 94.8462ZM440.356 94.8819C440.356 97.6311 438.394 99.8329 435.642 99.8329C432.89 99.8329 430.892 97.5978 430.892 94.8459C430.892 92.1007 432.858 89.8981 435.609 89.8981C438.361 89.8981 440.354 92.1364 440.354 94.8848L440.356 94.8819ZM459.361 88.849H454.238V100.879H459.585C462.218 100.879 463.958 99.6606 463.958 97.5782C463.958 95.9149 462.805 95.0898 461.379 94.6575C462.321 94.2449 463.285 93.4391 463.285 91.8571C463.285 90.0215 461.735 88.8519 459.36 88.8519L459.361 88.849ZM459.14 94.2127H455.576V90.0765H459.244C460.963 90.0765 461.908 90.8466 461.908 92.0484C461.907 93.4748 460.773 94.2156 459.138 94.2156L459.14 94.2127ZM459.621 99.6609H455.576V95.4177H459.381C461.479 95.4177 462.581 96.1746 462.581 97.4969C462.579 98.8549 461.443 99.6638 459.62 99.6638L459.621 99.6609ZM477.106 88.849H468.402V100.879H477.194V99.6413H469.765V95.4297H476.334V94.1919H469.765V90.0855H477.106V88.849Z" fill="#58595B"/>
<path fill-rule="evenodd" clip-rule="evenodd" d="M2.66364 80.8966V138.331C1.72158 138.331 0.227026 137.847 0.227026 136.34V82.888C0.225856 81.3806 1.72158 80.8966 2.66364 80.8966Z" fill="#58595B"/>
<path fill-rule="evenodd" clip-rule="evenodd" d="M497.341 80.8966V138.331C498.28 138.331 499.775 137.847 499.775 136.34V82.888C499.775 81.3806 498.28 80.8966 497.341 80.8966Z" fill="#58595B"/>
</svg>
