<svg xmlns="http://www.w3.org/2000/svg" xml:space="preserve" width="100%" height="100%" style="fill-rule:evenodd;clip-rule:evenodd;stroke-linejoin:round;stroke-miterlimit:2" version="1.1" viewBox="0 0 1650 1038"><path d="M142.803 158.138c-2.14-4.325-6.35-10.862-7.453-12.211l-.22.501c-.021.089-1.951 8.471-2.576 11.856.504-.255 1.365-.749 2.097-1.167l.658-.377.02.496c.234 5.739-.792 10.721-3.051 14.809l-.041.076c-.415.073-.856.13-1.295.173l-7.333-5.471v-27.32c0-.349-.136-.679-.382-.924a4.592 4.592 0 0 0-.729-.594l15.471-11.956c.71-.549.808-1.581.216-2.255-.224-.254-.446-.51-.669-.764a1.553 1.553 0 0 0-2.11-.212l-15.098 11.492c-1.502-.477-4.645-1.317-8.104-1.317-4.228 0-7.976 1.055-11.181 3.141v-4.611c1.52-.082 3.7-.383 5.907-1.323.355-.149.59-.519.599-.933l.088-3.67a1.049 1.049 0 0 0-.516-.946c-.852-.472-2.777-1.3-6.078-1.554v-.707c0-.668-.54-1.207-1.207-1.207h-1.695c-.667 0-1.206.539-1.206 1.207v.707c-3.301.254-5.226 1.082-6.079 1.554-.325.181-.524.548-.515.946l.088 3.67c.009.414.244.784.598.933 2.207.94 4.388 1.241 5.908 1.323v4.611c-3.205-2.086-6.954-3.141-11.181-3.141-2.991 0-5.747.628-7.409 1.107l-6.673-4.939a6.772 6.772 0 0 0-6.295-9.27 6.773 6.773 0 1 0 3.69 12.452l7.137 5.283c-.649.241-1.156.655-1.473.973a1.298 1.298 0 0 0-.382.924v26.824l-5.105 3.778c-.799.023-1.615.211-2.142.575-4.063-5.861-7.315-13.426-7.058-20.657-3.418 7.647-.496 16.746 3.552 23.686l-1.47.989c-.193.131.144.971.752 1.877l.628.931c.609.905 1.26 1.535 1.454 1.405l1.682-1.132c5.425 5.827 13.165 11.152 21.373 10.154-7.003-2.022-13.02-6.924-17.468-12.6.41-.323.576-1.1.832-1.697l7.012-5.189c2.042-.661 4.522-1.287 6.605-1.287 3.304 0 6.426.491 9.015 1.313-.006.011.03.022.102.032l2.83.909a1.336 1.336 0 0 0-.008.156v12.968a1.6 1.6 0 0 0 1.599 1.6h.908a1.6 1.6 0 0 0 1.601-1.6V169.57c0-.053-.002-.105-.008-.156l2.831-.909c.071-.01.107-.021.102-.032 2.587-.822 5.71-1.313 9.013-1.313 1.709 0 3.681.42 5.463.936l9.701 7.224c.138.573.263 1.179.345 1.772-4.063 4.006-8.934 5.839-12.329 6.67l-.413.101.042-.425c.058-.583.128-1.174.193-1.707.058-.474.121-.986.151-1.344-2.8 1.889-9.538 6.789-9.578 6.814l-.392.378c1.765.365 9.009 1.203 13.622 1.266-.504-.409-1.21-.982-1.813-1.462l-.461-.367.567-.161c3.443-.97 8.26-2.897 12.45-6.646 2.135-.467 5.126-1.759 5.126-1.759s0-2.384-.175-4.434c2.749-4.726 4-10.473 3.711-17.095l-.022-.506.455.222c.833.405 2.304 1.088 3.199 1.501Zm-77.499-27.855a3.745 3.745 0 1 1-.002-7.49 3.745 3.745 0 0 1 .002 7.49Zm54.529 33.813c-1.845-.742-4.016-1.119-6.463-1.119-5.595 0-11.18 1.916-13.526 2.839-.394.184-1.174.475-.875.362 0 0-.202-.069-.85-.352-2.33-.92-7.937-2.849-13.551-2.849-2.447 0-4.617.377-6.463 1.119v-28.509c1.077-.361 4.016-1.208 7.629-1.208 4.713 0 9.183 1.621 12.51 4.381l.725.832.724-.832c3.329-2.76 7.799-4.381 12.511-4.381 3.613 0 6.552.847 7.629 1.208v28.509Z" style="fill:#fff;fill-rule:nonzero" transform="scale(4.16667)"/><path d="M101.18 141.189a.484.484 0 0 0 .041.39l.047.083a.491.491 0 0 0 .649.21c1.292-.612 4.757-2.038 9.011-2.038 1.376 0 2.726.152 4.015.452l.083.013h.029a.498.498 0 0 0 .482-.372l.021-.09a.503.503 0 0 0-.37-.614 18.937 18.937 0 0 0-4.315-.491c-4.498 0-8.096 1.51-9.431 2.157a.496.496 0 0 0-.262.3ZM101.267 144.877a.494.494 0 0 0 .65.212c1.283-.614 4.726-2.039 9.005-2.039 1.378 0 2.731.152 4.021.453l.084.013h.028c.224 0 .422-.15.483-.374l.02-.086a.5.5 0 0 0-.37-.617 18.989 18.989 0 0 0-4.316-.491c-4.492 0-8.091 1.508-9.432 2.158a.502.502 0 0 0-.219.694l.046.077ZM115.188 145.451a18.933 18.933 0 0 0-4.316-.491c-4.492 0-8.09 1.508-9.432 2.157a.5.5 0 0 0-.259.306.487.487 0 0 0 .04.389l.046.084a.498.498 0 0 0 .65.209c1.293-.612 4.757-2.037 9.01-2.037 1.376 0 2.728.151 4.015.452l.084.013h.028c.226 0 .423-.15.484-.372l.021-.09a.508.508 0 0 0-.371-.62ZM101.262 151.206a.499.499 0 0 0 .651.209c1.286-.612 4.742-2.039 9.01-2.039 1.378 0 2.731.152 4.019.453l.084.013h.028a.5.5 0 0 0 .484-.373l.019-.086a.499.499 0 0 0-.369-.617 18.967 18.967 0 0 0-4.32-.491c-4.509 0-8.097 1.508-9.433 2.157a.508.508 0 0 0-.221.694l.048.08ZM115.183 151.83a18.997 18.997 0 0 0-4.317-.49c-4.495 0-8.093 1.508-9.43 2.156a.491.491 0 0 0-.221.688l.046.086a.5.5 0 0 0 .652.21c1.286-.612 4.737-2.04 9.009-2.04 1.377 0 2.73.153 4.021.453l.082.013h.029a.5.5 0 0 0 .484-.371l.02-.09a.503.503 0 0 0-.375-.615ZM115.188 154.978a19.008 19.008 0 0 0-4.316-.491c-4.491 0-8.09 1.508-9.432 2.158a.5.5 0 0 0-.259.305.49.49 0 0 0 .039.388l.047.079a.497.497 0 0 0 .65.211c1.293-.614 4.757-2.039 9.012-2.039 1.376 0 2.726.153 4.013.452l.084.013h.028a.499.499 0 0 0 .484-.371l.021-.09a.507.507 0 0 0-.371-.615ZM115.194 158.137a18.944 18.944 0 0 0-4.318-.491c-4.492 0-8.09 1.507-9.43 2.157a.5.5 0 0 0-.26.304c-.041.131-.026.271.081.468a.495.495 0 0 0 .65.211c1.291-.612 4.756-2.038 9.01-2.038 1.376 0 2.727.152 4.015.452l.084.013h.028a.503.503 0 0 0 .483-.366l.02-.09a.508.508 0 0 0-.363-.62ZM93.822 150.433c-1.334-.649-4.924-2.157-9.432-2.157-1.475 0-2.929.165-4.32.49a.495.495 0 0 0-.314.227.515.515 0 0 0-.057.386l.021.092c.061.218.26.371.484.371l.083-.006.028-.007c1.289-.3 2.641-.453 4.02-.453 4.266 0 7.724 1.426 9.011 2.04a.495.495 0 0 0 .65-.212l.046-.076a.49.49 0 0 0 .041-.388.509.509 0 0 0-.261-.307ZM93.822 153.497c-1.338-.648-4.936-2.157-9.43-2.157a18.99 18.99 0 0 0-4.317.49.511.511 0 0 0-.321.232.506.506 0 0 0-.055.381l.021.092c.061.219.26.372.484.372l.083-.006.028-.007a17.709 17.709 0 0 1 4.021-.453c4.269 0 7.724 1.426 9.01 2.039a.498.498 0 0 0 .649-.21l.046-.083a.494.494 0 0 0-.219-.69ZM93.816 156.644c-1.338-.648-4.939-2.157-9.43-2.157-1.473 0-2.924.165-4.317.492a.501.501 0 0 0-.369.612l.02.092c.06.218.259.372.483.372l.084-.006.028-.007a17.663 17.663 0 0 1 4.015-.453c4.255 0 7.719 1.426 9.009 2.038a.498.498 0 0 0 .652-.21l.046-.078a.485.485 0 0 0 .042-.386.511.511 0 0 0-.263-.309ZM93.812 159.803c-1.339-.648-4.936-2.157-9.431-2.157-1.473 0-2.926.165-4.318.491a.494.494 0 0 0-.307.227.52.52 0 0 0-.057.39l.021.088c.061.218.26.371.484.371l.083-.006.028-.007c1.287-.3 2.638-.452 4.016-.452 4.254 0 7.719 1.426 9.008 2.037a.498.498 0 0 0 .651-.209l.043-.079a.508.508 0 0 0-.221-.694ZM81.307 146.32c.983-.169 2-.253 3.024-.253 4.254 0 7.718 1.426 9.01 2.039a.498.498 0 0 0 .649-.21l.046-.084a.485.485 0 0 0 .043-.386.507.507 0 0 0-.262-.309c-1.302-.631-4.765-2.085-9.113-2.154l.005-1.91c4.107.08 7.394 1.443 8.63 2.035a.5.5 0 0 0 .652-.21l.046-.078a.491.491 0 0 0 .041-.389.516.516 0 0 0-.261-.306c-.708-.343-4.425-2.032-9.106-2.149l.005-2.117c4.083.082 7.381 1.443 8.623 2.032a.496.496 0 0 0 .651-.209l.046-.083a.493.493 0 0 0-.219-.689c-1.338-.649-4.936-2.158-9.431-2.158-1.474 0-2.926.165-4.309.495l-.393.198.009 7.227 1.614-.332ZM111.197 78.776c-.036.005-.105-.002-.142.002.003.004.142-.002.142-.002-2.143.449-5.28 4.561-5.837 5.314-.154 1.207.048 1.744.667 2.623.65.912.309 1.827-.317 2.884-.456.795-1.363 2.973-1.651 4.029-.527.576-1.271 1.084-1.926 1.28-.134-.075-.189-.473-.189-.473-1.031-1.518-2.906-1.339-2.906-1.339-2.024.344-2.102.984-2.102.984.434-.047 1.753.473 1.753.473.005.312.536.599.536.599-1.229-.228-2.268.485-2.268.485-1.878 1.295-1.216 2.714-1.216 2.714.004-1.116 1.634-1.376 1.634-1.376.71.651 3.474-.477 3.474-.477l-2.433 1.994c-.915 1.221-.373 2.443-.373 2.443.038-.9 1.272-1.21 1.272-1.21.828-.086 1.116-.505 1.116-.505 1.498-.321 1.612-1.862 1.612-1.862 2.276-.949 4.575-.444 4.575-.444a61.064 61.064 0 0 1 2.391 1.451l.268-.414c1.048-.226 1.556 1.049 1.556 1.049.358-1.682-.968-2.246-.968-2.246-.542-.643-1.553-.604-1.553-.604l-1.7-.477c-.013-.022-.511-.182-.524-.208-.151-.42-.378-.912-.301-1.367a6.15 6.15 0 0 1 .43-1.198c.887-1.188 2.228-2.633 2.675-3.576.475-.992.803-2.586 2.082-3.267.518-.263 1.188-.513 1.767-.781l.002.002s.024-.011.056-.03c.307-.144.585-.293.791-.452 1.041-.558 1.71-1.031 1.71-1.031-.861-.795-2.417-2.323-4.103-4.987ZM106.045 77.002c1.567.388 2.437 1.731 2.593 1.991.635-.52 1.285-.93 1.877-1.053 0 0-1.673-2.809-4.358-2.595-.044 0-.091.003-.136.007h-.014l-.001.001c-1.369.094-3.832 1.386-9.463 5.066-8.692 5.682-13.301 2.575-13.301 2.575-1.633 4.393-4.27 5.476-4.27 5.476s.78.745 2.249 1.45a16.94 16.94 0 0 0 2.509-3.031c.228-.357.432-.7.588-1.003.165-.3.287-.559.367-.742l.133-.287s-.025.112-.066.309c-.039.198-.101.48-.197.815-.087.337-.213.724-.363 1.135-.148.413-.325.849-.524 1.274-.35.765-.76 1.494-1.124 2.072.878.301 1.907.545 3.083.646.035-.05.067-.093.104-.148a16.917 16.917 0 0 0 1.786-3.316c.156-.394.291-.77.387-1.097.104-.325.175-.603.219-.799l.074-.306-.005.316c-.001.201-.007.49-.038.837a16.037 16.037 0 0 1-.411 2.534c-.175.723-.401 1.43-.622 2.026a15.907 15.907 0 0 0 3.93-.602c.024-.069.046-.129.071-.205.21-.627.443-1.491.596-2.375.082-.442.14-.889.178-1.311.04-.422.063-.819.062-1.161a9.82 9.82 0 0 0-.017-.828l-.015-.316s.032.111.085.305a9.5 9.5 0 0 1 .2.813c.078.34.145.742.201 1.176.058.435.101.902.121 1.372.036.718.022 1.438-.018 2.056a22.64 22.64 0 0 0 2.948-1.333c.404-.217.795-.432 1.181-.646a17.239 17.239 0 0 0-.336-3.262c-.086-.414-.18-.802-.279-1.128a10.413 10.413 0 0 0-.257-.787l-.106-.297.169.266c.111.169.264.415.429.72.173.302.354.668.534 1.067a17.159 17.159 0 0 1 .978 2.786 66.545 66.545 0 0 0 3.343-2.022 16.3 16.3 0 0 0-.442-2.183 14.7 14.7 0 0 0-.801-2.206 9.44 9.44 0 0 0-.348-.703l-.141-.264.198.224c.129.141.308.349.509.609a15.128 15.128 0 0 1 1.337 2.031c.323.583.608 1.189.831 1.724a25.711 25.711 0 0 0 1.667-1.259h.002l.521-.395s.092-.628-.144-1.169a15.608 15.608 0 0 0-.423-.939 14.05 14.05 0 0 0-.598-1.098 12.167 12.167 0 0 0-.601-.921 9.394 9.394 0 0 0-.474-.624l-.188-.234.237.184c.153.115.368.284.613.502a14.963 14.963 0 0 1 1.694 1.746c.045.052.085.107.128.16 0 0 .759.946.753 1.867 0 0 1.055-1.474 2.358-2.752-.27-1.85-1.971-2.792-1.762-2.741ZM68.033 60.648c2.928.473 7.092-1.357 8.76-3.253-.261-.513-1.076-.718-1.544-.647-2.222 1.659-6.953 3.777-9.989 1.47 0 0-2.86-2.101-.939-5.501 0 0 .541 1.733 1.541 1.835 0 0 .224-2.861 1.921-3.402 0 0-2.363-.901-4.248.996-2.316 2.331-.626 7.674 4.498 8.502ZM85.688 78.135c2.688-.436 5.339.804 5.339.804.838-2.954-.352-3.836-.352-3.836-2.494 2.509-4.987 3.032-4.987 3.032ZM95.374 75.403s.626-2.674-1.444-3.898c0 0-1.096 1.872-2.204 2.805 0 0 .798 1.11.496 2.133 0 0 1.744-1.584 3.152-1.04ZM102.556 68.887s.894-3.399 4.066-3.399c0 0-1.757-2.906-6.034-2.988C96.312 62.416 96 65.876 96 65.876v.098c.002-.044 2.464-1.413 5.037.743 0 0 1.342.935 1.519 2.17ZM76.885 72.118c-.254.223-.533.504-.821.81a16.889 16.889 0 0 0-2.234 2.999c-.072.121-.132.232-.19.337l-.031.093c-.324 1.08-.568 2.16-.672 3.171.234-.278.481-.56.741-.833.318-.337.652-.658.974-.947.323-.285.63-.545.907-.748.271-.21.506-.371.672-.48l.259-.174-.214.228c-.137.142-.327.35-.541.611-.22.254-.456.568-.699.909a16.781 16.781 0 0 0-1.788 3.254c-.099.234-.17.429-.229.59.154.71.446 1.33.913 1.821-.013-.031.152-.336.418-.785.562-.999 1.185-1.941 1.84-2.89l-.003-.002c1.011-1.509 2.375-3.142 2.824-3.368 0 0-.976-3.08-.038-6.208.417-2.002 2.228-5.241 2.42-7.434-.6.745-1.062 1.269-2.42 1.45l-.256.729v-.002l-1.031 1.981a11.688 11.688 0 0 1 1.446-.515c.24-.069.442-.114.585-.142l.221-.049-.196.114a6.333 6.333 0 0 0-.505.31c-.41.267-.926.658-1.395 1.091-.472.431-.9.898-1.194 1.262l-.124.157c-.153.292-.316.603-.498.967a49.36 49.36 0 0 0-.886 1.879 37.03 37.03 0 0 0-.416.968 15.384 15.384 0 0 1 2.012-1.361c.299-.172.555-.301.736-.387l.281-.137-.242.196c-.157.124-.377.304-.626.535ZM114.364 59.884c-.039-1.698.365-3.648 1.723-4.572 2.994-2.038 11.121-1.618 11.121-1.618-1.691-.676-18.382-3.403-27 4.757 0 0 7.889-4.126 13.584.873.211.133.396.431.572.56Z" style="fill:#fff;fill-rule:nonzero" transform="scale(4.16667)"/><path d="M112.672 59.884s-2.078-1.297-4.437-1.727c-2.964-.54-8.253.42-10.341 3.829 5.319-1.496 7.994.68 9.54 2.244.376-3.819 4.436-4.174 5.238-4.346ZM96.276 72.616c1.389-3.186 5.291-3.022 5.291-3.022.011-.591-1.095-2.407-3.503-2.962-2.662-.614-3.842 3.62-3.842 3.62 1.845.315 2.054 2.364 2.054 2.364ZM79.626 77.541c-.548.16-.997.897-.997.897-1.508 1.998-2.476 3.554-3.932 6.096-1.815 2.931-3.578 7.171-5.904 9.393-.207.193-.293.314-.623.43-.329.117-.722-.468-.722-.468-1.031-1.519-2.905-1.341-2.905-1.341-2.025.345-2.103.985-2.103.985.435-.049 1.754.472 1.754.472.004.312.536.6.536.6-1.23-.228-2.269.484-2.269.484-1.878 1.295-1.216 2.714-1.216 2.714.004-1.116 1.634-1.375 1.634-1.375.71.651 3.474-.476 3.474-.476l-2.433 1.993c-.915 1.221-.373 2.442-.373 2.442.038-.899 1.272-1.208 1.272-1.208.828-.087 1.116-.507 1.116-.507 1.498-.32 1.612-1.862 1.612-1.862 2.275-.949 4.575-.443 4.575-.443a60.42 60.42 0 0 1 2.391 1.45l.268-.414c1.048-.224 1.555 1.049 1.555 1.049.358-1.681-.967-2.245-.967-2.245-.542-.642-1.553-.604-1.553-.604l-1.549-.435a3.218 3.218 0 0 1-.329-.662c-.188-1.376.808-2.673 1.473-3.712 2.041-2.223 5.211-3.114 6.69-4.73 1.314-1.476 2.637-3.791 2.42-6.764-.089-1.285-2.369-1.885-2.895-1.759ZM63.034 68.82c.95 2.276.444 4.574.444 4.574-.813 1.409-1.45 2.392-1.45 2.392l.413.268c.225 1.047-1.049 1.555-1.049 1.555 1.683.359 2.247-.968 2.247-.968.641-.541.604-1.552.604-1.552l.433-1.549c.193-.124.405-.237.664-.329.834-.438 1.537.065 2.066.532.194.183.389.366.579.569 1.137 1.033 1.615 2.605 2.436 3.84l-.003.009 1.194 1.903c.061-1.162.333-2.435.716-3.706.204-.68.439-1.354.69-2.015h-.987a.619.619 0 0 0-.161 0c-1.381-.355-2.459-1.63-3.757-2.721-.403-.374-1.372-1.09-2.158-1.658-.229-.165-.35-.192-.468-.521-.117-.328.47-.722.47-.722 1.518-1.031 1.34-2.906 1.34-2.906-.344-2.024-.985-2.102-.985-2.102.048.434-.472 1.754-.472 1.754-.312.004-.599.535-.599.535.227-1.229-.486-2.268-.486-2.268-1.294-1.878-2.713-1.216-2.713-1.216 1.115.004 1.376 1.634 1.376 1.634-.651.711.475 3.474.475 3.474l-1.992-2.433c-1.222-.915-2.444-.373-2.444-.373.9.038 1.209 1.273 1.209 1.273.088.826.506 1.114.506 1.114.321 1.498 1.862 1.613 1.862 1.613Z" style="fill:#fff;fill-rule:nonzero" transform="scale(4.16667)"/><path d="m90.214 73.972.002.001c2.133-1.783 3.91-6.111 4.422-7.817 6.114-20.351 33.681-13.031 33.681-13.031-8.487-3.286-17.039-2.188-17.039-2.188s-12.724.632-17.404 11.14c-2.805 6.292-4.222 8.463-4.817 9.151l-.003-.002c-3.263 3.447-6.263 3.116-6.263 3.116 3.144-.897 4.722-3.182 5.133-3.862 0 0 .408-.652.431-.886-.274.041-1.003.253-1.327.257-.98.038-1.855-.789-2.05-1.927-.723.78-1.24 1.67-1.24 1.67.098-1.088.89-2.235 1.47-2.942.137-.201.311-.389.491-.559l.127-.131.006.01c.396-.35.775-.584.775-.584s-1.472-.865-1.542-2.416c-.822.748-1.446 1.672-1.446 1.672.19-1.188 1.219-2.389 1.844-3.024.524-.691 1.374-.912 1.374-.912s-1.569-.315-1.315-3.012c-.619.647-1.053 1.29-1.053 1.29.154-.973.875-1.955 1.473-2.628.495-.812 1.238-1.097 1.238-1.097a3.466 3.466 0 0 1-.424-.353 12.894 12.894 0 0 1-.564-.502 9.193 9.193 0 0 1-.932-1.036c-.303-.411-.603-.882-.755-1.421a2.306 2.306 0 0 1-.102-.824c.008-.277.095-.54.204-.774.119-.23.263-.436.43-.598.157-.175.336-.305.496-.425.33-.23.629-.382.841-.477l.333-.15-.323.169c-.203.11-.325.182-.634.427-.15.128-.315.265-.454.441a2.158 2.158 0 0 0-.368.585 1.79 1.79 0 0 0-.14.709c.002.248.049.498.14.734.241.643.468 1.135.904 1.574-.174-.533-.193-.968-.129-1.577.167-1.915 2.981-3.124 2.981-3.124s-.324-.393-1.026-.47c0 0-1.972-.512-6.098 2.196-2.073-1.182-5.168-.618-7.19 1.364 0 0-2.668-1.26-6.049 1.905l3.373.981c.999.501 1.167.662 1.158 1.898 1.523-.963 2.84-.787 3.977-.243.672.332 2.102 1.297 1.629 3.197a3.548 3.548 0 0 1-.532.748c-1.343 1.441-3.422 1.529-5.084 1.701-.557.084-1.107 1.135-1.348 1.697l.47-.111c2.574-.75 4.58.787 7.127-.275 2.03-1.201 2.675-2.629 2.653-5.094-.293-3.652-1.63-4.571-2.152-4.738-1.056-.264-1.719.847-2.309.485-.707-.435-.435-1.542-.435-1.542.701-.278 2.096.158 2.662.374.751.387 2.687 1.337 3.027 5.552.159 1.292.116 2.239.104 3.807-.405 4.58-2.316 5.923-2.715 10.839.078 2.815.327 3.283.911 3.75 1.079.864 4.524.621 6.128-.228 1.218-.644 2.302-1.505 3.247-2.46ZM83.572 82.099l.011-.025-.011.025ZM83.572 82.099c-.005.013-.005.011 0 0ZM83.583 82.073l.021-.051-.021.051ZM135.856 91.774c-.774-.217-1.545.395-1.545.395l-1.591.583c-.09.085-1.232-.107-1.339-.028-.286-.693-.599-1.685-1.038-3.555l-.003-.016a48.65 48.65 0 0 1-.194-.855h-.008l-.366-1.549-.343-2.843s-.02-.074-.056-.195c-.487-2.255-1.357-3.344-1.425-3.454l-.001.004c-2.489-3.999-7.706-5.756-7.765-5.768.232.045 4.783.787 7.623 4.113a13.797 13.797 0 0 0 3.821-1.462c5.391-3.017 8.53-11.023 4.142-16.5-4.331-5.407-13.018-2.938-13.967 1.959-.772 3.985 2.239 6.094 2.239 6.094-.722-2.559 2.568-5.353 2.568-5.353-.935-1.138-3.478-.277-3.478-.277 2.57-5.354 7.439-3.69 7.439-3.69 7.398 2.842 5.764 12.09-1.006 14.608-2.211.823-4.463.514-6.459-.258-2.915-1.466-1.53-5.878-1.53-5.878s-1.415 1.687-3.183 1.568l-.006-.001c.158 1.009.71 2.088.71 2.088-.997-.788-1.472-2.847-1.472-2.847h.002c-.463-1.135-.41-3.078-.589-2.48-.258.851-.946 2.264-3.036 2.435-.019.002-.038-.005-.057-.004.379.769.898 1.424.898 1.424-.73-.372-1.351-1.302-1.7-1.916-.658-.919-.891-2.784-.891-2.784-1.493 2.773-5.775 3.368-7.417 3.464-2.495-.3-1.834 3.012-1.834 3.012-.902-.475-1.108-1.123-2.268-1.137-.528-.028-1.585.27-2.049.63-1.309.79-2.322 2.107-2.444 5.564-1.249-1.009-2.519-.422-3.781.509 0 0-.318 1.791-1.3 2.674-1.573-.858-3.337-1.186-3.735-1.198l.006-.001s-1.426-.176-3.561.089c0 0 .308 1.688-.26 3.074 3.208 2.142 8.29-.112 11.109-1.697 3.212-1.77 6.229-4.321 9.603-5.62 1.693-.761 3.49-.453 4.925.543 2.057 1.428 4.393 5.411 6.851 7.797.138.134 1.618 2.131 6.734 2.38 0 0 2.684-.052 4.686 3.126.091.152.186.313.283.486.071.129.144.252.213.391.472.893.966 2.019 1.349 3.438-.054.392-.125.82-.239 1.19-.059.209-.14.379-.226.531l-.009-.001c-.054.344-.496-.163-.496-.163-1.639-.653-3.008.567-3.008.567-1.395 1.442-1.106 2.012-1.106 2.012.314-.289 1.63-.617 1.63-.617.175.252.748.183.748.183-1.087.519-1.51 1.698-1.51 1.698-.761 2.137.534 2.92.534 2.92-.607-.916.526-2.063.526-2.063.912.125 2.458-2.382 2.458-2.382l-.814 3.028c-.047 1.525 1.047 2.216 1.047 2.216-.464-.759.333-1.72.333-1.72.598-.545.595-1.054.595-1.054.997-1.122.244-2.45.244-2.45-.14-1.84 3.336-2.986 3.336-2.986 1.547-.14 2.648-.673 2.648-.673.698-.786 1.792-.032 1.792-.032-.641-1.584-1.987-1.286-1.987-1.286ZM150.91 108.705l-.146.05c-1.691 1.122-13.725 8.02-44.338-.94-37.294-10.917-60.036 7.857-60.036 7.857l.295.07c3.343-1.746 26.171-12.801 60.535-2.753 33.222 9.726 43.69-4.284 43.69-4.284ZM98.636 216.876s59.449-15.187 66.747-62.944l-.272.317c-5.34 34.795-66.475 53.812-66.475 53.812h.027s-61.133-19.017-66.474-53.812l-.272-.317c7.297 47.757 66.746 62.944 66.746 62.944" style="fill:#fff;fill-rule:nonzero" transform="scale(4.16667)"/><path d="M98.621 39.384c22.559 0 59.788 9.504 63.198 15.81 1.672 2.6 3.04 16.113 3.312 18.496l.28.417s.644-13.733.411-17.896c-.48-8.613-30.83-23.947-67.201-23.947h.057c-36.369 0-66.72 15.334-67.2 23.947-.232 4.163.411 17.896.411 17.896l.28-.417c.271-2.383 1.64-15.896 3.312-18.496 3.41-6.306 40.639-15.81 63.197-15.81M363.964 124.786s-14.804 18.39-72.774 6.857c-65.037-12.916-106.83 2.537-106.83 2.537s41.815-21.554 106.861-8.624c57.948 11.526 72.743-.77 72.743-.77ZM184.437 211.186h4.96l2.8-6.24h11.68l2.8 6.24h6.08l-12.96-28.24h-1.96l-13.4 28.24Zm17.72-9.96h-8.28l4.08-9.16 4.2 9.16Zm12.368 9.96h5.36v-2.12c.68.84 2.48 3.04 5.96 3.04 4 0 9.08-3.12 9.08-11.36 0-6.36-3.239-10.88-8.72-10.88-3.88 0-5.519 2.12-6.32 3.16v-10.08h-5.36v28.24Zm5.36-15.36c0-.04 1.28-2.68 4.36-2.68 2.04 0 3.36 1.16 4.16 2.8.8 1.6.92 3.44.92 4.76 0 6.72-3.12 8.12-5.2 8.12-2.28 0-3.479-1.44-4.24-2.36v-10.64Zm36.647 9.12c-1.4 1.8-2.88 3.68-6.599 3.68-6.321 0-7-5.64-7.201-7.16h15.76c-.04-2.24-.081-6.04-2.92-8.92-2.48-2.48-5.679-2.76-7.44-2.76-7.239 0-11.08 4.88-11.08 10.88 0 6.28 3.881 11.36 11.24 11.36 7.04 0 8.68-4.2 9.561-6.44l-1.321-.64Zm-13.679-6.6c.519-2.04 1.319-5.2 5.159-5.2 4.001 0 4.44 3.36 4.68 5.2h-9.839Zm23.859-7.64h-5.359v20.48h5.359v-15.88c.92-.6 2.12-1.4 4.08-1.4 1.48 0 2.521.48 3.521.96v-4.64c-.481-.08-1-.12-1.521-.12-3.64 0-5.279 2.12-6.08 3.16v-2.56Zm13.12 0h-3.239v3.2h3.239v11.32c0 1.8.2 3.6 1.681 5.04 1.559 1.56 3.679 1.68 4.639 1.68 2.64 0 4.08-.92 5.281-1.64l-.641-1.28c-.64.2-1.199.4-2.04.4-.399 0-2 0-2.96-1.8-.399-.68-.64-1.52-.64-3.24v-10.48h4.68v-3.2h-4.68v-5.56h-5.32v5.56Zm30.508 8.12c0-1.88-.04-4.6-2.04-6.64-1.16-1.2-3.401-2.36-6.88-2.36-6.08 0-7.681 3.52-8.561 5.48l1.361.68c.8-1.08 2.239-3.04 5.639-3.04 1.521 0 3.8.52 4.76 2.68.441 1 .521 2.08.561 3.12-1.601-.48-2.88-.88-4.84-.88-4.761 0-8.641 2.64-8.641 7.36 0 3.68 2.641 6.56 6.8 6.56 3.801 0 5.801-2 6.681-2.92v2.32h5.16v-12.36Zm-5.16 8.2c-1.04.68-2.321 1.48-4.201 1.48-2.679 0-3.679-1.88-3.679-3.64 0-2.6 2.08-3.84 4.439-3.84 1.361 0 2.401.36 3.441.76v5.24Zm13.603 4.32h1.96l5.401-11.92 5.4 11.92h1.92l7.72-20.64h-4.281l-3.519 10.2-.601 1.92c-.439-1.08-.479-1.28-.88-2.24l-4.08-9.88h-1.76l-5.32 12.08c-.279-1-.359-1.24-.639-2.16l-3.361-9.92h-5.559l7.599 20.64Zm41.905-6.4c-1.4 1.8-2.88 3.68-6.6 3.68-6.32 0-7-5.64-7.2-7.16h15.759c-.04-2.24-.08-6.04-2.919-8.92-2.48-2.48-5.68-2.76-7.44-2.76-7.24 0-11.08 4.88-11.08 10.88 0 6.28 3.88 11.36 11.239 11.36 7.04 0 8.681-4.2 9.561-6.44l-1.32-.64Zm-13.68-6.6c.519-2.04 1.32-5.2 5.16-5.2 4 0 4.439 3.36 4.68 5.2h-9.84ZM200.431 158.789c2.421.125 2.671.125 3.548.125 8.638 0 12.06-4.048 12.06-8.764 0-3.757-2.17-5.718-4.048-6.553-1.67-.751-3.589-.876-6.386-.876h-9.223v29.465h4.049v-13.397Zm0-13.606h4.465c3.589 0 4.883.835 5.759 1.878.668.793 1.211 2.045 1.211 3.464 0 2.546-1.586 5.092-5.426 6.135-2.461.668-4.84.585-6.009.543v-12.02Zm23.418 10.851c.417-.584 1.836-2.545 4.381-2.545 1.419 0 2.588.584 3.256.876v-3.422c-.585-.251-1.127-.501-2.212-.501-3.046 0-4.716 2.42-5.425 3.422v-2.921h-3.84v21.243h3.84v-16.152Zm15.404-5.133h-3.798v21.285h3.798v-21.285Zm-4.09-6.177a2.164 2.164 0 0 0 2.17 2.212c.71 0 2.254-.417 2.254-2.337 0-1.085-.835-2.171-2.17-2.171-1.336 0-2.254 1.002-2.254 2.296Zm14.799 8.639h4.382v-2.42h-4.382v-2.045c0-1.837 0-2.797.459-3.548.418-.709 1.294-1.336 2.63-1.336 1.001 0 1.711.293 2.295.543.167-.25.501-.626.668-.876-.459-.501-1.586-1.837-4.174-1.837-1.753 0-3.005.626-3.756 1.169-1.878 1.419-1.92 3.38-1.92 5.3v2.63h-3.006v2.42h3.006v18.823h3.798v-18.823Zm23.418-2.42-6.469 14.816-6.011-14.816h-4.214l8.263 19.24c-2.797 6.344-4.551 8.305-8.263 9.432v1.127c5.383.251 8.18-2.963 10.726-8.764l9.265-21.035h-3.297Zm21.356 5.05c-.125-.96-.417-2.964-2.589-4.466-1.543-1.085-3.588-1.461-5.257-1.461-4.8 0-7.722 2.755-7.722 6.302 0 4.09 3.673 5.259 5.802 5.927 2.295.709 3.38 1.043 4.215 1.461.584.292 2.128 1.126 2.128 3.13 0 2.128-1.878 3.547-4.757 3.547-2.129 0-4.174-.751-5.551-1.961-.96-.835-1.461-1.711-1.837-2.337-.292.125-.793.25-1.126.375.208 1.002.584 3.172 2.796 4.842 1.669 1.21 3.756 1.669 5.843 1.669 2.295 0 4.465-.459 6.177-1.836 1.461-1.169 2.337-2.838 2.337-4.842 0-4.507-4.299-5.759-6.427-6.385-.292-.084-2.087-.626-2.212-.668-2.171-.71-3.59-1.544-3.59-3.297 0-1.878 1.795-3.256 4.55-3.256 3.964 0 5.424 2.421 6.135 3.59.292-.084.793-.251 1.085-.334Zm19.01-5.05v2.754c-.876-1.252-2.546-3.631-6.302-3.631-4.466 0-8.556 3.798-8.556 11.102 0 6.719 3.59 10.392 8.306 10.392 4.132 0 5.885-2.379 6.552-3.255v1.21c0 3.005 0 4.967-1.502 6.678-1.127 1.335-2.88 1.92-4.633 1.92-1.961 0-4.007-.751-5.384-2.004-.96-.876-1.335-1.669-1.669-2.379l-1.211.418c1.253 5.968 6.261 6.636 8.515 6.636 3.589 0 6.01-1.336 7.429-2.755 2.253-2.295 2.253-5.217 2.253-8.389v-18.697h-3.798Zm0 15.734c-.96.793-2.671 2.212-5.091 2.212-4.091 0-5.802-3.965-5.802-8.013 0-4.8 2.212-8.097 5.635-8.097 1.043 0 2.128.334 3.088.96 1.21.793 1.753 1.711 2.17 2.421v10.517Zm29.574-5.426c0-6.51-3.839-11.185-10.058-11.185-5.676 0-10.476 3.673-10.476 11.853 0 1.962.251 6.094 3.423 8.848 2.337 1.962 4.966 2.296 6.677 2.296 4.634 0 7.095-2.296 8.139-3.631 1.419-1.837 2.295-4.591 2.295-8.181Zm-4.048.251c0 6.803-2.962 9.265-6.219 9.265-2.128 0-4.34-1.21-5.384-4.006-.334-.793-.834-2.588-.834-5.343 0-4.465 1.627-9.015 6.26-9.015 4.3 0 6.177 4.299 6.177 9.099Zm13.046-18.781h-3.797v29.466h3.797v-29.466ZM212.426 79.35h-4.007v22.955c-1.878 2.128-5.217 4.591-9.057 4.591-2.796 0-5.049-1.294-6.051-2.88-.751-1.169-1.043-2.796-1.043-5.967V79.35h-4.007v20.493c0 3.088.501 5.216 2.254 7.011 1.586 1.669 4.257 2.838 7.763 2.838 3.923 0 7.178-1.252 10.141-5.217v4.382h4.007V79.35Zm22.95 14.566c0-1.962-.042-3.964-1.794-5.592-.418-.334-1.795-1.586-4.884-1.586-4.425 0-6.427 2.713-7.262 3.839v-2.962h-3.756v21.242h3.756V93.039c1.46-2.462 3.673-3.546 5.718-3.546 1.252 0 3.548.501 4.174 2.795.292 1.127.292 2.213.292 4.509v12.06h3.756V93.916Zm8.648-6.343h-3.798v21.284h3.798V87.573Zm-4.09-6.178a2.164 2.164 0 0 0 2.17 2.213c.709 0 2.254-.417 2.254-2.338 0-1.085-.835-2.17-2.171-2.17-1.335 0-2.253 1.001-2.253 2.295Zm23.446 6.22-6.051 14.189c-.334.751-.376 1.002-.459 1.419-.167-.71-.377-1.252-.418-1.377l-5.801-14.231h-4.132l9.307 21.493h1.294l9.391-21.493h-3.131Zm24.002 10.642c.042-1.502.167-6.052-3.13-9.098-1.669-1.503-3.923-2.421-6.636-2.421-5.718 0-10.601 4.215-10.601 11.603 0 7.595 5.008 11.393 10.643 11.393 7.304 0 8.931-5.301 9.349-6.803-.293-.084-.752-.292-1.044-.418-.751 1.169-2.88 4.341-7.387 4.341-.626 0-3.631 0-5.76-2.755-1.627-2.17-1.753-4.631-1.836-5.842h16.402Zm-16.36-2.295c.584-4.884 3.965-6.594 6.511-6.594 2.086 0 5.843 1.251 6.135 6.594h-12.646Zm23.718-3.256c.418-.585 1.837-2.545 4.382-2.545 1.419 0 2.588.583 3.256.875v-3.421c-.584-.251-1.127-.501-2.212-.501-3.047 0-4.716 2.421-5.426 3.422v-2.921h-3.84v21.242h3.84V92.706Zm25.338-.042c-.126-.96-.418-2.962-2.588-4.465-1.544-1.085-3.589-1.461-5.259-1.461-4.798 0-7.72 2.755-7.72 6.301 0 4.092 3.673 5.26 5.801 5.928 2.295.709 3.38 1.043 4.215 1.46.584.292 2.128 1.127 2.128 3.13 0 2.128-1.878 3.547-4.758 3.547-2.127 0-4.172-.751-5.55-1.961-.959-.835-1.46-1.711-1.836-2.337-.292.125-.794.25-1.128.375.209 1.002.586 3.172 2.798 4.842 1.669 1.21 3.756 1.669 5.842 1.669 2.295 0 4.465-.459 6.176-1.836 1.461-1.169 2.338-2.838 2.338-4.842 0-4.506-4.299-5.758-6.428-6.384-.292-.084-2.086-.626-2.212-.668-2.169-.71-3.588-1.544-3.588-3.298 0-1.878 1.795-3.255 4.548-3.255 3.965 0 5.426 2.42 6.135 3.589.293-.084.793-.251 1.086-.334Zm7.779-5.091h-3.797v21.284h3.797V87.573Zm-4.089-6.178a2.164 2.164 0 0 0 2.17 2.213c.709 0 2.253-.417 2.253-2.338 0-1.085-.835-2.17-2.17-2.17s-2.253 1.001-2.253 2.295Zm13.405 8.64h4.466v-2.42h-4.466V81.98h-3.799v5.635h-2.922v2.42h2.922v13.23c0 2.546.167 4.257 1.878 5.467.627.417 1.837 1.002 3.465 1.002 2.463 0 3.798-1.169 4.591-1.837-.167-.292-.417-.709-.584-1.001-.71.334-1.461.709-2.546.709-3.005 0-3.005-2.671-3.005-5.384V90.035Zm22.724-2.42-6.468 14.815-6.01-14.815h-4.217l8.265 19.239c-2.796 6.344-4.549 8.305-8.265 9.432v1.127c5.385.251 8.182-2.963 10.728-8.764l9.264-21.034h-3.297ZM187.979 60.76c.256 1.576.639 4.006 2.728 6.052 2.856 2.855 7.033 2.941 8.567 2.941 1.28 0 6.266 0 9.506-3.367 1.534-1.62 2.642-4.007 2.642-6.607 0-2.345-.938-4.432-2.387-5.797-1.96-1.961-5.072-2.686-7.161-3.154-3.239-.64-5.541-1.108-6.436-3.325a4.142 4.142 0 0 1-.256-1.448c0-3.113 3.027-4.646 6.437-4.646 2.601 0 4.689.852 6.01 2.13.767.768 1.108 1.493 1.492 2.43l1.747-.469c-.128-1.023-.341-3.111-2.174-4.986-2.599-2.687-6.734-2.728-7.969-2.728-9.762 0-11.595 6.051-11.595 9.376 0 6.905 6.351 8.185 9.761 8.866 3.666.724 6.265 1.662 6.265 4.902 0 2.557-2.088 5.157-6.35 5.157-2.558 0-5.073-.767-6.906-2.556-1.108-1.11-1.662-2.261-2.216-3.369l-1.705.598Zm32.493 8.268h2.088l5.754-12.701 5.754 12.701h2.046l8.227-21.993h-4.562l-3.75 10.868-.639 2.047c-.469-1.152-.511-1.365-.939-2.388l-4.347-10.527h-1.875l-5.669 12.873c-.298-1.067-.383-1.323-.683-2.303l-3.58-10.57h-5.925l8.1 21.993Zm44.359-13.341c0-2.004-.044-4.901-2.175-7.076-1.236-1.279-3.624-2.514-7.332-2.514-6.477 0-8.182 3.751-9.121 5.839l1.449.725c.854-1.15 2.387-3.24 6.01-3.24 1.62 0 4.05.554 5.072 2.856.469 1.066.554 2.217.598 3.324-1.705-.511-3.069-.937-5.157-.937-5.073 0-9.207 2.813-9.207 7.843 0 3.922 2.812 6.99 7.246 6.99 4.049 0 6.18-2.13 7.118-3.111v2.472h5.499V55.687Zm-5.499 8.738c-1.108.724-2.473 1.577-4.476 1.577-2.855 0-3.921-2.004-3.921-3.879 0-2.771 2.216-4.091 4.731-4.091 1.448 0 2.558.383 3.666.809v5.584Zm30.046-10.315c0-1.833-.128-4.007-1.748-5.712-1.151-1.193-2.984-2.003-5.243-2.003-4.134 0-6.01 2.216-7.118 3.495v-2.855H269.6v21.823h5.669V52.619c.98-1.108 2.386-2.687 4.731-2.687 2.046 0 3.111 1.322 3.453 2.559.213.724.213 1.491.213 2.215v14.152h5.712V54.11Zm3.29 9.036c.128 1.023.383 2.6 1.833 4.093.937.938 3.11 2.514 7.374 2.514 6.265 0 9.292-3.538 9.292-7.332 0-1.833-.683-3.451-1.705-4.518-1.236-1.279-2.899-1.746-4.092-2.046-.81-.213-1.62-.383-2.431-.553-1.918-.512-3.878-1.065-3.878-3.027 0-1.407 1.237-2.899 4.348-2.899 4.305 0 5.371 2.218 5.754 2.984l1.492-.426c-.171-.853-.426-2.13-1.705-3.453-1.364-1.406-3.58-2.386-6.479-2.386-6.351 0-9.164 3.835-9.164 7.332 0 3.963 3.282 5.199 4.134 5.498.981.383 1.96.596 2.942.809 2.769.597 4.177 1.152 4.816 2.557.128.385.213.725.213 1.066 0 .128 0 2.132-2.388 2.898-.723.257-1.448.3-2.13.3-2.387 0-4.433-.811-5.626-2.003-.597-.598-.853-1.195-1.108-1.748l-1.492.34Zm41.664-.938c-1.492 1.918-3.069 3.922-7.033 3.922-6.735 0-7.459-6.01-7.672-7.63h16.794c-.043-2.386-.085-6.436-3.112-9.505-2.642-2.643-6.052-2.94-7.928-2.94-7.715 0-11.807 5.199-11.807 11.592 0 6.692 4.135 12.106 11.978 12.106 7.502 0 9.249-4.476 10.187-6.863l-1.407-.682Zm-14.577-7.033c.554-2.174 1.407-5.54 5.498-5.54 4.263 0 4.732 3.58 4.987 5.54h-10.485Zm38.885.512c0-2.004-.042-4.901-2.173-7.076-1.237-1.279-3.624-2.514-7.332-2.514-6.479 0-8.184 3.751-9.121 5.839l1.449.725c.852-1.15 2.387-3.24 6.01-3.24 1.62 0 4.049.554 5.072 2.856.469 1.066.554 2.217.597 3.324-1.704-.511-3.069-.937-5.158-.937-5.072 0-9.206 2.813-9.206 7.843 0 3.922 2.813 6.99 7.246 6.99 4.049 0 6.18-2.13 7.118-3.111v2.472h5.498V55.687Zm-5.498 8.738c-1.108.724-2.472 1.577-4.476 1.577-2.855 0-3.921-2.004-3.921-3.879 0-2.771 2.216-4.091 4.731-4.091 1.449 0 2.558.383 3.666.809v5.584Z" style="fill:#fff;fill-rule:nonzero" transform="scale(4.16667)"/></svg>